<!-- icon666.com - MILLIONS vector ICONS FREE --><svg id="Layer_2" viewBox="0 0 32 32" xmlns="http://www.w3.org/2000/svg" xmlns:xlink="http://www.w3.org/1999/xlink" data-name="Layer 2"><linearGradient id="linear-gradient" gradientUnits="userSpaceOnUse" x1="6.129" x2="24.855" y1="28.451" y2="4.83"><stop offset="0" stop-color="#00ed95"></stop><stop offset="1" stop-color="#00aaef"></stop></linearGradient><g fill="url(#linear-gradient)"><path d="m16 7.5a8.5 8.5 0 1 0 8.5 8.5 8.51 8.51 0 0 0 -8.5-8.5zm0 2.5a.5.5 0 1 1 -.5.5.5.5 0 0 1 .5-.5zm1.44 10.5h-2.88a.5.5 0 0 1 0-1h.94v-6.2h-.94a.5.5 0 1 1 0-1h1.44a.5.5 0 0 1 .5.5v6.7h.94a.5.5 0 0 1 0 1z" fill="url(#linear-gradient)" style="fill: rgb(0, 153, 243);"></path><path d="m16 1.5a14.5 14.5 0 1 0 14.5 14.5 14.517 14.517 0 0 0 -14.5-14.5zm0 24a9.5 9.5 0 1 1 9.5-9.5 9.511 9.511 0 0 1 -9.5 9.5z" fill="url(#linear-gradient)" style="fill: rgb(0, 153, 243);"></path></g></svg>