<!-- icon666.com - MILLIONS vector ICONS FREE --><svg viewBox="0 0 32 32" xmlns="http://www.w3.org/2000/svg"><g id="_x30_7"><path d="m10 5c0-1.654-1.346-3-3-3s-3 1.346-3 3 1.346 3 3 3 3-1.346 3-3zm-3 1c-.551 0-1-.449-1-1s.449-1 1-1 1 .449 1 1-.449 1-1 1z"></path><path d="m19 5c0-1.654-1.346-3-3-3s-3 1.346-3 3 1.346 3 3 3 3-1.346 3-3zm-3 1c-.551 0-1-.449-1-1s.449-1 1-1 1 .449 1 1-.449 1-1 1z"></path><path d="m28 5c0-1.654-1.346-3-3-3s-3 1.346-3 3 1.346 3 3 3 3-1.346 3-3zm-3 1c-.551 0-1-.449-1-1s.449-1 1-1 1 .449 1 1-.449 1-1 1z"></path><path d="m27.042 8h-2.042-2.042c-1.024 0-1.926.523-2.458 1.316-.531-.793-1.434-1.316-2.458-1.316h-2.042-2.042c-1.024 0-1.926.523-2.458 1.316-.531-.793-1.434-1.316-2.458-1.316h-2.042-2.042c-1.631 0-2.958 1.327-2.958 2.958v4.042 3c0 .552.448 1 1 1h1.387c.28 1.092.708 2.127 1.278 3.093l-.978.979c-.391.391-.391 1.023 0 1.414l2.828 2.828c.391.391 1.023.391 1.414 0l.979-.978c.966.57 2.001.998 3.093 1.278v1.386c0 .552.448 1 1 1h4c.552 0 1-.448 1-1v-1.387c1.092-.28 2.127-.708 3.093-1.278l.979.978c.391.391 1.023.391 1.414 0l2.828-2.828c.391-.391.391-1.023 0-1.414l-.978-.979c.57-.966.998-2.001 1.278-3.093h1.385c.552 0 1-.448 1-1v-3-4.042c0-1.63-1.327-2.957-2.958-2.957zm-4.084 2h4.085c.527 0 .957.43.957.958v3.042h-6v-3.042c0-.528.43-.958.958-.958zm-.958 6c0 3.309-2.691 6-6 6s-6-2.691-6-6zm-8.042-6h4.085c.527 0 .957.43.957.958v3.042h-6v-3.042c0-.528.43-.958.958-.958zm-9 0h4.085c.527 0 .957.43.957.958v3.042h-6v-3.042c0-.528.43-.958.958-.958zm23.042 7h-1.19c-.482 0-.896.344-.983.819-.257 1.395-.792 2.688-1.589 3.846-.274.397-.225.933.116 1.274l.839.839-1.414 1.414-.839-.839c-.341-.341-.877-.39-1.274-.116-1.158.797-2.451 1.332-3.846 1.589-.476.088-.82.501-.82.984v1.19h-2v-1.19c0-.482-.344-.896-.819-.983-1.395-.257-2.688-.792-3.846-1.589-.397-.274-.934-.225-1.274.116l-.839.839-1.414-1.414.839-.839c.341-.341.39-.877.116-1.274-.797-1.158-1.332-2.451-1.589-3.846-.088-.476-.501-.82-.984-.82h-1.19v-1h4c0 4.411 3.589 8 8 8s8-3.589 8-8h4z"></path></g></svg>