<!-- icon666.com - MILLIONS vector ICONS FREE --><svg viewBox="-5 0 491 491.2" xmlns="http://www.w3.org/2000/svg"><path d="m242.421875 208.238281 165.679687 41.441407v-65.679688h-336v65.839844l166.476563-41.601563c1.261719-.316406 2.582031-.316406 3.84375 0zm0 0"></path><path d="m384.101562 168v-32c0-4.417969-3.582031-8-8-8h-272c-4.417968 0-8 3.582031-8 8v32h16v-24c0-4.417969 3.582032-8 8-8h240c4.417969 0 8 3.582031 8 8v24zm0 0"></path><path d="m128.101562 152h224v16h-224zm0 0"></path><path d="m168.101562 64c0-4.417969 3.582032-8 8-8h48c4.417969 0 8 3.582031 8 8v48h16v-48c0-4.417969 3.582032-8 8-8h48c4.417969 0 8 3.582031 8 8v48h8v-56c0-4.417969-3.582031-8-8-8h-144c-4.417968 0-8 3.582031-8 8v56h8zm0 0"></path><path d="m200.101562 16h8v16h-8zm0 0"></path><path d="m272.101562 16h8v16h-8zm0 0"></path><path d="m184.101562 72h32v40h-32zm0 0"></path><path d="m264.101562 72h32v40h-32zm0 0"></path><path d="m144.101562 296c0 4.417969-3.582031 8-8 8-4.417968 0-8-3.582031-8-8s3.582032-8 8-8c4.417969 0 8 3.582031 8 8zm0 0"></path><path d="m449.292969 459.761719c-5.992188 9.597656-10.03125 15.4375-17.25 15.4375-7.214844 0-11.246094-5.863281-17.238281-15.4375-6.402344-10.234375-14.402344-22.960938-30.808594-22.960938s-24.398438 12.726563-30.800782 22.960938c-5.984374 9.597656-10.015624 15.4375-17.222656 15.4375-7.207031 0-11.199218-5.863281-17.207031-15.4375-6.402344-10.234375-14.335937-22.960938-30.769531-22.960938s-24.390625 12.726563-30.785156 22.960938c-5.984376 9.597656-10.015626 15.4375-17.222657 15.4375s-11.199219-5.863281-17.207031-15.4375c-6.402344-10.234375-14.34375-22.960938-30.785156-22.960938s-24.382813 12.726563-30.777344 22.960938c-5.984375 9.597656-10.015625 15.4375-17.214844 15.4375-7.199218 0-11.199218-5.863281-17.207031-15.429688-6.402344-10.242187-14.34375-22.96875-30.777344-22.96875-16.429687 0-24.382812 12.726563-30.765625 22.960938-5.984375 9.597656-10.011718 15.4375-17.210937 15.4375s-11.199219-5.863281-17.183594-15.429688c-6.390625-10.242187-14.335937-22.96875-30.757813-22.96875v16c7.199219 0 11.199219 5.863281 17.183594 15.429688 6.398438 10.242187 14.335938 22.96875 30.757813 22.96875 16.425781 0 24.386719-12.726563 30.777343-22.96875 5.976563-9.597657 10.007813-15.429688 17.199219-15.429688 7.191407 0 11.199219 5.863281 17.207031 15.4375 6.402344 10.234375 14.351563 22.960938 30.777344 22.960938 16.425782 0 24.390625-12.726563 30.785156-22.960938 5.976563-9.597656 10.007813-15.4375 17.207032-15.4375 7.199218 0 11.199218 5.863281 17.214844 15.4375 6.402343 10.234375 14.34375 22.960938 30.777343 22.960938 16.433594 0 24.398438-12.726563 30.792969-22.960938 5.984375-9.597656 10.015625-15.4375 17.214844-15.4375 7.199218 0 11.199218 5.863281 17.199218 15.429688 6.402344 10.242187 14.34375 22.96875 30.777344 22.96875 16.429688 0 24.398438-12.726563 30.792969-22.960938 5.992187-9.597656 10.023437-15.4375 17.230469-15.4375 7.207031 0 11.257812 5.863281 17.246094 15.4375 6.402343 10.242188 14.402343 22.960938 30.800781 22.960938 16.402343 0 24.410156-12.726563 30.808593-22.960938 5.992188-9.597656 10.03125-15.4375 17.25-15.4375v-16c-16.449218 0-24.410156 12.726563-30.808593 22.960938zm0 0"></path><path d="m240.101562 309.199219-37.523437 37.441406 13.28125 53.039063-1.199219.320312h1.441406v1.679688c0 .082031-.082031.160156-.082031.242187 2.429688 3.144531 4.671875 6.429687 6.71875 9.839844 6 9.597656 10.082031 15.4375 17.28125 15.4375s11.199219-5.839844 17.199219-15.4375c2.148438-3.503907 4.472656-6.894531 6.960938-10.160157 0-.082031-.078126-.082031-.078126-.160156v-1.441406h1.359376c0-.078125.078124-.160156.160156-.238281l-1.28125-.320313 13.199218-52.800781zm0 0"></path><path d="m126.820312 411.761719c5.917969 9.597656 10 15.4375 17.199219 15.4375s11.199219-5.839844 17.199219-15.4375c6.402344-10.242188 14.320312-22.960938 30.800781-22.960938 1.585938.03125 3.164063.191407 4.71875.480469l-10.796875-43.121094c-.644531-2.738281.171875-5.613281 2.160156-7.601562l46.320313-46.320313c3.117187-3.101562 8.15625-3.101562 11.277344 0l46.320312 46.320313c1.988281 1.988281 2.804688 4.863281 2.160157 7.601562l-10.800782 43.121094c1.53125-.292969 3.082032-.453125 4.640625-.480469 16.402344 0 24.320313 12.71875 30.71875 22.960938 6 9.597656 10 15.4375 17.203125 15.4375 7.199219 0 11.277344-5.839844 17.277344-15.4375 4.691406-9.851563 12.875-17.605469 22.960938-21.761719l45.679687-120.398438-181.359375-45.363281-181.039062 45.28125 51.039062 123.441407c6.796875 4.945312 12.378906 11.375 16.320312 18.800781zm9.28125-67.761719c-4.417968 0-8-3.582031-8-8v-17.441406c-11.023437-3.894532-17.632812-15.164063-15.65625-26.683594 1.976563-11.519531 11.964844-19.941406 23.65625-19.941406 11.6875 0 21.675782 8.421875 23.652344 19.941406 1.976563 11.519531-4.632812 22.789062-15.652344 26.683594v10.800781c11.503907 4.070313 18.125 16.121094 15.386719 28.015625-2.738281 11.890625-13.96875 19.835938-26.09375 18.460938s-21.289062-11.632813-21.292969-23.835938h16c0 4.417969 3.582032 8 8 8 4.417969 0 8-3.582031 8-8s-3.582031-8-8-8zm0 0"></path><path d="m464.101562 56v-16h-16v16h-16v16h16v16h16v-16h16v-16zm0 0"></path><path d="m360.101562 48h16v-16h16v-16h-16v-16h-16v16h-16v16h16zm0 0"></path><path d="m16.101562 88h16v-16h16v-16h-16v-16h-16v16h-16v16h16zm0 0"></path><path d="m104.101562 48h16v-16h16v-16h-16v-16h-16v16h-16v16h16zm0 0"></path><path d="m17.300781 420.238281c6.398438 10.242188 14.320313 22.960938 30.71875 22.960938 16.402344 0 24.402344-12.71875 30.800781-22.960938 6-9.597656 10-15.4375 17.199219-15.4375 1.839844 0-4.398437-15.601562-4.398437-15.601562-13.519532 1.921875-20.5625 13.28125-26.402344 22.5625-5.917969 9.597656-10 15.4375-17.199219 15.4375s-11.199219-5.839844-17.199219-15.4375c-6.320312-10.242188-14.320312-22.960938-30.71875-22.960938v16c7.199219 0 11.199219 5.839844 17.199219 15.4375zm0 0"></path><path d="m449.300781 411.761719c-6 9.597656-10 15.4375-17.28125 15.4375s-11.199219-5.839844-17.199219-15.4375c-4.539062-9.40625-12.160156-16.972657-21.601562-21.441407l-4.878906 12.800782c4.75 5.347656 9.054687 11.074218 12.878906 17.117187 6.402344 10.242188 14.402344 22.960938 30.800781 22.960938 16.402344 0 24.402344-12.71875 30.800781-22.960938 6-9.597656 10.078126-15.4375 17.28125-15.4375v-16c-16.480468 0-24.402343 12.71875-30.800781 22.960938zm0 0"></path></svg>