<!-- icon666.com - MILLIONS vector ICONS FREE --><svg version="1.1" id="Layer_1" xmlns="http://www.w3.org/2000/svg" xmlns:xlink="http://www.w3.org/1999/xlink" x="0px" y="0px" viewBox="0 0 512 512" style="enable-background:new 0 0 512 512;" xml:space="preserve"><path style="fill: rgb(0, 0, 0);" d="M498.356,273.763H12.816c-7.739,0-13.711,6.807-12.705,14.481l16.641,126.923 c1.395,10.636,10.457,18.588,21.183,18.588h397.565c11.465,0,21.775-6.981,26.034-17.625l49.478-123.67 C514.594,283.505,508,273.763,498.356,273.763z" fill="#333E48"></path><path style="fill: rgb(31, 31, 31);" d="M424.612,273.763H29.025V215.24h380.817c8.158,0,14.77,6.612,14.77,14.769V273.763z" fill="#C3C6C8"></path><path style="opacity:0.15;enable-background:new ;" d="M327.229,244.501h-19.981c-4.981,0-9.018,4.037-9.018,9.016v20.245h38.015 v-20.245C336.247,248.538,332.21,244.501,327.229,244.501z" fill="#000000"></path><path style="fill: rgb(10, 10, 10);" d="M365.386,161.74H43.795c-8.157,0-14.77,6.612-14.77,14.77v38.729h351.132v-38.729 C380.157,168.353,373.543,161.74,365.386,161.74z" fill="#F0EFEF"></path><rect x="29.025" y="201.675" style="opacity:0.1;enable-background:new ;" width="351.132" height="13.563" fill="#000000"></rect><rect x="29.025" y="261.328" style="opacity:0.1;enable-background:new ;" width="395.589" height="12.433" fill="#000000"></rect><path style="fill: rgb(31, 31, 31);" d="M141.889,78.246H78.164c-3.002,0-5.437,2.434-5.437,5.436v78.058h74.596V83.683 C147.325,80.68,144.891,78.246,141.889,78.246z" fill="#C3C6C8"></path><path style="fill: rgb(5, 5, 5);" d="M141.889,78.246H78.164c-3.002,0-5.437,2.434-5.437,5.436v18.908h74.596V83.683 C147.325,80.68,144.891,78.246,141.889,78.246z" fill="#FF495C"></path><rect x="72.722" y="147.614" style="opacity:0.1;enable-background:new ;" width="74.596" height="14.129" fill="#000000"></rect><path style="fill: rgb(31, 31, 31);" d="M280.909,78.246h-63.724c-3.003,0-5.437,2.434-5.437,5.436v78.058h74.596V83.683 C286.345,80.68,283.912,78.246,280.909,78.246z" fill="#C3C6C8"></path><path style="fill: rgb(5, 5, 5);" d="M280.909,78.246h-63.724c-3.003,0-5.437,2.434-5.437,5.436v18.908h74.596V83.683 C286.345,80.68,283.912,78.246,280.909,78.246z" fill="#FF495C"></path><rect x="211.752" y="147.614" style="opacity:0.1;enable-background:new ;" width="74.596" height="14.129" fill="#000000"></rect><g><rect x="60.574" y="236.277" style="" width="31.083" height="16.445" fill="#FFFFFF"></rect><rect x="120.863" y="236.277" style="" width="31.082" height="16.445" fill="#FFFFFF"></rect><rect x="181.141" y="236.277" style="" width="31.082" height="16.445" fill="#FFFFFF"></rect><rect x="241.419" y="236.277" style="" width="31.082" height="16.445" fill="#FFFFFF"></rect><rect x="361.975" y="236.277" style="" width="31.083" height="16.445" fill="#FFFFFF"></rect><polygon style="" points="11.935,378.436 14.092,394.882 470.034,394.882 476.613,378.436 " fill="#FFFFFF"></polygon></g><g><path style="fill: rgb(255, 255, 255);" d="M319.313,326.191h-26.942c-3.327,0-6.026-2.698-6.026-6.026v-15.64c0-3.329,2.698-6.026,6.026-6.026 h26.942c3.327,0,6.026,2.698,6.026,6.026v15.64C325.339,323.493,322.641,326.191,319.313,326.191z" fill="#57C9E8"></path><path style="fill: rgb(255, 255, 255);" d="M387.034,326.191h-26.942c-3.327,0-6.025-2.698-6.025-6.026v-15.64c0-3.329,2.697-6.026,6.025-6.026 h26.942c3.329,0,6.027,2.698,6.027,6.026v15.64C393.06,323.493,390.362,326.191,387.034,326.191z" fill="#57C9E8"></path><path style="fill: rgb(255, 255, 255);" d="M454.755,326.191h-26.943c-3.327,0-6.026-2.698-6.026-6.026v-15.64c0-3.329,2.698-6.026,6.026-6.026 h26.942c3.327,0,6.026,2.698,6.026,6.026v15.64C460.78,323.493,458.082,326.191,454.755,326.191z" fill="#57C9E8"></path></g><g><path style="opacity:0.25;enable-background:new ;" d="M454.755,298.501h-0.713l-27.543,27.544 c0.423,0.094,0.861,0.148,1.312,0.148h26.942c3.327,0,6.026-2.698,6.026-6.027v-15.64 C460.78,301.198,458.082,298.501,454.755,298.501z" fill="#FFFFFF"></path><path style="opacity:0.25;enable-background:new ;" d="M387.034,298.501h-26.942c-3.327,0-6.025,2.698-6.025,6.026 v15.64c0,3.329,2.697,6.027,6.025,6.027h10.372l22.528-22.528C392.571,300.746,390.068,298.501,387.034,298.501z" fill="#FFFFFF"></path><path style="opacity:0.25;enable-background:new ;" d="M304.474,326.191h14.838c3.327,0,6.026-2.698,6.026-6.027 v-14.838L304.474,326.191z" fill="#FFFFFF"></path></g><path style="opacity:0.15;enable-background:new ;" d="M109.794,344.062c-3.756-2.55-8.872-1.572-11.422,2.185 c-1.059,1.56-2.394,2.87-3.907,3.899v-15.432h8.259c4.542,0,8.223-3.682,8.223-8.223c0-4.542-3.68-8.223-8.223-8.223h-8.259v-2.704 c0-4.541-3.68-8.223-8.223-8.223c-4.542,0-8.223,3.682-8.223,8.223v2.704h-8.26c-4.541,0-8.223,3.68-8.223,8.223 c0,4.541,3.682,8.223,8.223,8.223h8.26v15.432c-1.514-1.029-2.849-2.337-3.909-3.899c-2.552-3.757-7.665-4.735-11.422-2.185 c-3.757,2.551-4.734,7.665-2.184,11.422c5.8,8.543,15.421,13.643,25.738,13.643c10.315,0,19.937-5.1,25.737-13.643 C114.528,351.727,113.551,346.613,109.794,344.062z" fill="#000000"></path><path style="fill: rgb(31, 31, 31);" d="M115.212,337.548c-3.756-2.551-8.872-1.572-11.422,2.184c-1.06,1.561-2.394,2.87-3.907,3.899v-15.432 h8.259c4.542,0,8.223-3.682,8.223-8.223s-3.68-8.223-8.223-8.223h-8.259v-2.704c0-4.541-3.68-8.223-8.223-8.223 c-4.542,0-8.223,3.682-8.223,8.223v2.704h-8.26c-4.542,0-8.223,3.682-8.223,8.223s3.68,8.223,8.223,8.223h8.26v15.432 c-1.515-1.028-2.849-2.337-3.909-3.899c-2.552-3.757-7.665-4.735-11.422-2.184c-3.757,2.551-4.734,7.665-2.184,11.422 c5.8,8.543,15.421,13.643,25.738,13.643c10.315,0,19.937-5.1,25.737-13.643C119.948,345.212,118.97,340.099,115.212,337.548z" fill="#C3C6C8"></path><g><path style="opacity:0.25;enable-background:new ;" d="M108.142,311.752h-8.259v-2.704 c0-4.541-3.68-8.223-8.223-8.223c-0.588,0-1.16,0.065-1.711,0.181c-1.601,2.962-2.511,6.35-2.511,9.953 c0,8.543,5.116,15.88,12.445,19.149v-1.911h8.259c4.542,0,8.223-3.682,8.223-8.223S112.684,311.752,108.142,311.752z" fill="#FFFFFF"></path><path style="opacity:0.25;enable-background:new ;" d="M115.212,337.548c-3.258-2.214-7.539-1.766-10.281,0.843 c-0.494,1.21-0.772,2.531-0.772,3.92c0,5.692,4.586,10.308,10.263,10.369c1.072-1.153,2.073-2.385,2.973-3.71 C119.948,345.212,118.97,340.099,115.212,337.548z" fill="#FFFFFF"></path></g></svg>