<!-- icon666.com - MILLIONS vector ICONS FREE --><svg id="Layer_2" enable-background="new 0 0 48 48" viewBox="0 0 48 48" xmlns="http://www.w3.org/2000/svg"><g><path d="m1 17.59v9.82c0 1.43 1.16 2.59 2.59 2.59h.41v-15h-.41c-1.43 0-2.59 1.16-2.59 2.59z"></path><path d="m44.41 15h-.41v15h.41c1.43 0 2.59-1.16 2.59-2.59v-9.82c0-1.43-1.16-2.59-2.59-2.59z"></path><path d="m8 41.77v.31c0 1.61 1.31 2.92 2.92 2.92h6.16c1.61 0 2.92-1.31 2.92-2.92v-.08h-10.44c-.54 0-1.07-.08-1.56-.23z"></path><path d="m28 42v.08c0 1.61 1.31 2.92 2.92 2.92h6.16c1.61 0 2.92-1.31 2.92-2.92v-.31c-.49.15-1.02.23-1.56.23z"></path><path d="m38.437 3h-28.875c-2.515 0-4.562 2.047-4.562 4.563v3.437h38v-3.437c0-2.516-2.047-4.563-4.563-4.563zm-8.437 6h-12c-.553 0-1-.448-1-1s.447-1 1-1h12c.553 0 1 .448 1 1s-.447 1-1 1z"></path><path d="m5 13h38v16h-38z"></path><path d="m5 33c0-.552.447-1 1-1h5c1.654 0 3 1.346 3 3s-1.346 3-3 3h-5c-.385 0-.708-.224-.875-.543.465 2.025 2.274 3.543 4.437 3.543h28.875c2.164 0 3.972-1.518 4.438-3.543-.167.319-.49.543-.875.543h-5c-1.654 0-3-1.346-3-3s1.346-3 3-3h5c.553 0 1 .448 1 1v-2h-38zm12 1h14c.553 0 1 .448 1 1s-.447 1-1 1h-14c-.553 0-1-.448-1-1s.447-1 1-1z"></path></g></svg>