<!-- icon666.com - MILLIONS vector ICONS FREE --><svg clip-rule="evenodd" fill-rule="evenodd" image-rendering="optimizeQuality" shape-rendering="geometricPrecision" text-rendering="geometricPrecision" viewBox="0 0 1707 1707" xmlns="http://www.w3.org/2000/svg"><g id="Layer_x0020_1"><path d="m1654 1163h-148c1-7 1-14 1-21 0-95-77-172-172-172s-173 77-173 172c0 7 1 14 2 21h-49v-273c0-11-9-20-20-20h-881c-11 0-20 9-20 20v273h-141c-29 0-53-24-53-53v-366l1240 1s22 0 52 9c2 1 3 1 5 2 39 13 91 43 123 108 43 86 194 131 287 149v97c0 29-24 53-53 53zm-1654-459v-154h244v154zm284-154h167v154h-167zm207 0h167v154h-167zm207 0h168v155l-168-1zm208 0h167v155h-167zm207 0h168v160c-23-5-39-5-41-5h-127zm-1113-40v-32c0-29 24-53 53-53h1492c24 0 41 16 52 46l13 39h-309-208-207-208-207-207zm1075 653h-484c0-7 1-14 1-21 0-95-78-172-173-172s-172 77-172 172c0 7 0 14 1 21h-14v-253h382v105c0 11 9 20 20 20h322c11 0 20-9 20-20v-105h97zm-419-253h282v85h-282z"></path><path d="m419 1281c-76 0-139-62-139-139s63-139 139-139c77 0 139 62 139 139s-62 139-139 139z"></path><path d="m1335 1281c-77 0-139-62-139-139s62-139 139-139c76 0 139 62 139 139s-63 139-139 139z"></path><path d="m419 1204c-34 0-61-28-61-62s27-62 61-62 62 28 62 62-28 62-62 62z"></path><path d="m1335 1204c-34 0-62-28-62-62s28-62 62-62 61 28 61 62-27 62-61 62z"></path><path d="m1321 722c45 17 99 52 135 124 35 69 166 109 251 127v-179c0-2-1-4-2-6l-81-238h-303z"></path></g></svg>