<!-- icon666.com - MILLIONS vector ICONS FREE --><svg viewBox="0 0 520 520" xmlns="http://www.w3.org/2000/svg"><g id="_28-Cancel" data-name="28-Cancel"><path d="m338.007 395-7.166-7.151-70.841-70.849-77.785 77.789-.222-.208-.214.2-6.953-6.936-49.826-49.825 78.007-78.012-78.007-78.008 56.993-57 78.007 78.011 78.007-78.011 56.993 57-78.008 78.012 78.008 78.008-56.576 56.58-.009-.008z" fill="#bf0411"></path></g><g id="_13-Cancel" fill="#828282" data-name="13-Cancel"><circle cx="259.868" cy="43.663" r="10"></circle><circle cx="259.868" cy="476.238" r="10"></circle><circle cx="43.815" cy="259.951" r="10"></circle><circle cx="475.922" cy="259.951" r="10"></circle><circle cx="412.807" cy="107.012" r="10"></circle><circle cx="106.93" cy="412.889" r="10"></circle><circle cx="107.096" cy="107.178" r="10"></circle><circle cx="412.641" cy="412.723" r="10"></circle><circle cx="72.558" cy="151.807" r="10"></circle><circle cx="447.179" cy="368.095" r="10"></circle><circle cx="151.842" cy="447.058" r="10"></circle><circle cx="367.895" cy="72.843" r="10"></circle><circle cx="203.889" cy="51.033" r="10"></circle><circle cx="315.848" cy="468.869" r="10"></circle><circle cx="51.177" cy="315.869" r="10"></circle><circle cx="468.56" cy="204.032" r="10"></circle><circle cx="447.179" cy="151.807" r="10"></circle><circle cx="72.558" cy="368.095" r="10"></circle><circle cx="367.895" cy="447.058" r="10"></circle><circle cx="151.842" cy="72.843" r="10"></circle><circle cx="315.848" cy="51.033" r="10"></circle><circle cx="203.889" cy="468.869" r="10"></circle><circle cx="468.56" cy="315.869" r="10"></circle><circle cx="51.177" cy="204.032" r="10"></circle></g></svg>