<!-- icon666.com - MILLIONS vector ICONS FREE --><svg id="Glyph" viewBox="0 0 64 64" xmlns="http://www.w3.org/2000/svg"><path d="m30.12 37.38v13.62a9.50861 9.50861 0 0 1 -9.5 9.5h-7.62a9.50861 9.50861 0 0 1 -9.5-9.5v-7.62a9.50861 9.50861 0 0 1 9.5-9.5h13.62a3.50386 3.50386 0 0 1 3.5 3.5z"></path><path d="m60.5 43.38v7.62a9.50861 9.50861 0 0 1 -9.5 9.5h-7.62a9.50861 9.50861 0 0 1 -9.5-9.5v-13.62a3.50386 3.50386 0 0 1 3.5-3.5h13.62a9.50861 9.50861 0 0 1 9.5 9.5z"></path><path d="m30.12 13v13.62a3.50386 3.50386 0 0 1 -3.5 3.5h-13.62a9.50861 9.50861 0 0 1 -9.5-9.5v-7.62a9.50861 9.50861 0 0 1 9.5-9.5h7.62a9.50861 9.50861 0 0 1 9.5 9.5z"></path><path d="m60.5 13v7.62a9.50861 9.50861 0 0 1 -9.5 9.5h-13.62a3.50386 3.50386 0 0 1 -3.5-3.5v-13.62a9.50861 9.50861 0 0 1 9.5-9.5h7.62a9.50861 9.50861 0 0 1 9.5 9.5z"></path></svg>