<!-- icon666.com - MILLIONS vector ICONS FREE --><svg id="svg28031" viewBox="0 0 16.933333 16.933334" xmlns="http://www.w3.org/2000/svg" xmlns:svg="http://www.w3.org/2000/svg"><g id="layer1" transform="translate(0 -280.067)"><path id="path40218" d="m1.3229164 281.65467c-.43516018 0-.79271546.35755-.79271546.79271v8.99635c0 .43516.35755528.79272.79271546.79272h1.8515675v2.91248c.00185.23431.2849431.3507.4511332.18552l3.0980036-3.098h8.8862803c.43516 0 .7953-.35756.7953-.79272v-8.99635c0-.43516-.36014-.79271-.7953-.79271zm3.7031323 1.85156h8.9963523c.360691-.008.360691.53717 0 .52917h-8.9963523c-.3606906.008-.3606906-.53717 0-.52917zm6.3515513 2.11719c.345037.008.345037.52151 0 .52916h-8.4666675c-.3455062.0103-.3721074-.50372-.013705-.52916zm2.644801 0c.345038.008.345038.52151 0 .52916h-1.58595c-.345508.0103-.372115-.50372-.0137-.52916zm0 2.11718c.0096-.00087.01929-.001.02894-.001.364697.008.334429.56022-.02894.52813h-11.1114685c-.3278849-.007-.3527902-.48625-.013705-.5271zm-11.1114685 2.11512h2.1171853c.345051.008.345051.52152 0 .52916h-2.1171853c-.3606774.008-.3606774-.53715 0-.52916zm3.1739681 0h7.9375004c.345051.008.345051.52152 0 .52916h-7.9375004c-.3606773.008-.3606773-.53715 0-.52916z" font-variant-ligatures="normal" font-variant-position="normal" font-variant-caps="normal" font-variant-numeric="normal" font-variant-alternates="normal" font-feature-settings="normal" text-indent="0" text-align="start" text-decoration-line="none" text-decoration-style="solid" text-decoration-color="rgb(0,0,0)" text-transform="none" text-orientation="mixed" white-space="normal" shape-padding="0" isolation="auto" mix-blend-mode="normal" solid-color="rgb(0,0,0)" solid-opacity="1" vector-effect="none"></path></g></svg>