<!-- icon666.com - MILLIONS vector ICONS FREE --><svg clip-rule="evenodd" fill-rule="evenodd" image-rendering="optimizeQuality" shape-rendering="geometricPrecision" text-rendering="geometricPrecision" viewBox="0 0 512 512" xmlns="http://www.w3.org/2000/svg"><g id="Layer_x0020_1"><path d="m84 450c-4 0-7-3-8-7l-76-277c-1-3 1-7 6-8l356-96c4-1 8 1 9 5l26 97h56c4 0 7 3 7 7v109c31 14 52 45 52 81 0 48-38 87-85 89-1 0-1 0-2 0zm339-188h-90c-4 0-7-3-7-7v-59c0-4 3-7 7-7h90c4 0 7 3 7 7v59c0 4-3 7-7 7zm-82-14h75v-44h-75zm-220-1c-10 0-10-15 0-15h179c10 0 10 15 0 15zm0 40c-10 0-10-15 0-15h179c10 0 10 15 0 15zm0 39c-10 0-10-15 0-15h179c10 0 10 15 0 15zm0 40c-10 0-10-15 0-15h179c10 0 10 15 0 15zm0 39c-10 0-10-15 0-15h179c10 0 10 15 0 15zm262-44c-6-8 6-17 12-9l13 16 44-36c8-6 17 6 10 12l-50 40c-3 2-9 2-12-1zm69-69c-4-1-11-6-29-6-41 0-75 34-75 75s34 75 75 75 74-34 74-75c0-31-18-58-45-69zm-361-113v257h283c-24-16-41-44-41-75 0-59 56-101 112-86v-96zm-75-9 60 218v-217c0-4 4-7 8-7h298l-23-86z" fill="#1b74b9" style="fill: rgb(12, 13, 13);"></path><path d="m121 311h179c10 0 10 15 0 15h-179c-10 0-10-15 0-15zm0 40h179c10 0 10 15 0 15h-179c-10 0-10-15 0-15zm0 39h179c10 0 10 15 0 15h-179c-10 0-10-15 0-15zm-30 46h283c-24-16-41-44-41-75 0-59 56-101 112-86v-96h-354zm242-174c-4 0-7-3-7-7v-59c0-4 3-7 7-7h90c4 0 7 3 7 7v59c0 4-3 7-7 7zm-33 10c10 0 10 15 0 15h-179c-10 0-10-15 0-15zm0-25h-179c-10 0-10-15 0-15h179c10 0 10 15 0 15z" fill="#0cf" style="fill: rgb(0, 153, 243);"></path><g fill="#fff"><path d="m341 204v44h75v-44z" fill="#fff" style="fill: rgb(250, 250, 250);"></path><path d="m423 286c-41 0-75 34-75 75s34 75 75 75 74-34 74-75c0-31-18-58-45-69-4-1-11-6-29-6zm-40 75c-6-8 6-17 12-9l13 16 44-36c8-6 17 6 10 12l-50 40c-3 2-9 2-12-1z" fill="#fff" style="fill: rgb(250, 250, 250);"></path><path d="m84 164h298l-23-86-343 92 60 218v-217c0-4 4-7 8-7z" fill="#fff" style="fill: rgb(250, 250, 250);"></path></g></g></svg>