<!-- icon666.com - MILLIONS vector ICONS FREE --><svg enable-background="new 0 0 512 512" viewBox="0 0 512 512" xmlns="http://www.w3.org/2000/svg"><g id="_x30_7_Customers"><g><path d="m131.516 134.229c-32.105 0-58.227 26.121-58.227 58.227s26.121 58.227 58.227 58.227 58.227-26.121 58.227-58.227-26.122-58.227-58.227-58.227zm0 104.407c-25.462 0-46.18-20.717-46.18-46.18s20.717-46.18 46.18-46.18 46.18 20.717 46.18 46.18-20.718 46.18-46.18 46.18z"></path><path d="m462.616 268.231h-164.264c-18.217 0-34.103 10.131-42.352 25.047-8.249-14.915-24.135-25.047-42.352-25.047h-164.264c-26.674 0-48.376 21.702-48.376 48.376v143.696c0 12.486 10.161 22.647 22.647 22.647h464.691c12.486 0 22.647-10.161 22.647-22.647v-143.696c-.001-26.674-21.702-48.376-48.377-48.376zm-223.239 202.672h-32.396v-72.387c0-3.325-2.698-6.023-6.023-6.023s-6.023 2.698-6.023 6.023v72.387h-126.838v-72.387c0-3.325-2.698-6.023-6.023-6.023s-6.023 2.698-6.023 6.023v72.387h-32.396c-5.843 0-10.6-4.757-10.6-10.6v-143.696c0-20.031 16.298-36.329 36.329-36.329h164.264c20.031 0 36.329 16.298 36.329 36.329v143.696c0 5.843-4.757 10.6-10.6 10.6zm259.568-10.6c0 5.843-4.757 10.6-10.6 10.6h-32.395v-72.387c0-3.325-2.698-6.023-6.023-6.023s-6.023 2.698-6.023 6.023v72.387h-126.838v-72.387c0-3.325-2.698-6.023-6.023-6.023s-6.023 2.698-6.023 6.023v72.387h-32.396c-5.843 0-10.6-4.757-10.6-10.6v-143.696c0-20.031 16.298-36.329 36.329-36.329h164.264c20.031 0 36.329 16.298 36.329 36.329v143.696z"></path><path d="m322.258 192.456c0 32.105 26.121 58.227 58.227 58.227s58.227-26.121 58.227-58.227-26.121-58.227-58.227-58.227-58.227 26.121-58.227 58.227zm104.406 0c0 25.462-20.717 46.18-46.18 46.18-25.462 0-46.18-20.717-46.18-46.18s20.717-46.18 46.18-46.18 46.18 20.718 46.18 46.18z"></path><path d="m197.773 87.277c0 32.105 26.121 58.227 58.227 58.227s58.227-26.121 58.227-58.227-26.122-58.226-58.227-58.226-58.227 26.121-58.227 58.226zm104.407 0c0 25.462-20.717 46.18-46.18 46.18s-46.18-20.717-46.18-46.18 20.717-46.18 46.18-46.18 46.18 20.718 46.18 46.18z"></path></g></g></svg>