<svg id="SvgjsSvg1045" width="288" height="288" xmlns="http://www.w3.org/2000/svg" version="1.1" xmlns:xlink="http://www.w3.org/1999/xlink" xmlns:svgjs="http://svgjs.com/svgjs"><defs id="SvgjsDefs1046"></defs><g id="SvgjsG1047"><svg xmlns="http://www.w3.org/2000/svg" viewBox="0 0 64 64" width="288" height="288"><path fill="#bbc3c7" d="M61,21.50076a2,2,0,0,0-2-2H5a2,2,0,0,0-2,2v32.5H61Z" class="colorfff svgShape"></path><path fill="#5e6b72" d="M3,54.00076v.5a2,2,0,0,0,2,2H59a2,2,0,0,0,2-2v-.5Z" class="colord741d1 svgShape"></path><path fill="#bbc3c7" d="M32,42.50076H55a0,0,0,0,1,0,0v8a2,2,0,0,1-2,2H32a0,0,0,0,1,0,0v-10A0,0,0,0,1,32,42.50076Z" class="colorfff svgShape"></path><path fill="#bbc3c7" d="M9,42.50076H30a2,2,0,0,1,2,2v8a0,0,0,0,1,0,0H9a0,0,0,0,1,0,0v-10A0,0,0,0,1,9,42.50076Z" transform="rotate(-180 20.5 47.5)" class="colorfff svgShape"></path><path fill="#282e31" d="M59,57.50076H5a3.00328,3.00328,0,0,1-3-3v-33a3.00328,3.00328,0,0,1,3-3H59a3.00328,3.00328,0,0,1,3,3v33A3.00328,3.00328,0,0,1,59,57.50076Zm-54-37a1.001,1.001,0,0,0-1,1v33a1.001,1.001,0,0,0,1,1H59a1.00067,1.00067,0,0,0,1-1v-33a1.00067,1.00067,0,0,0-1-1Z" class="color333 svgShape"></path><path fill="#282e31" d="M28,52.50076h8a0,0,0,0,1,0,0v3a2,2,0,0,1-2,2H30a2,2,0,0,1-2-2v-3A0,0,0,0,1,28,52.50076Z" class="color333 svgShape"></path><path fill="#282e31" d="M34,58.50076H30a3.00328,3.00328,0,0,1-3-3v-3a.99973.99973,0,0,1,1-1h8a.99942.99942,0,0,1,1,1v3A3.00328,3.00328,0,0,1,34,58.50076Zm-5-5v2a1.001,1.001,0,0,0,1,1h4a1.00067,1.00067,0,0,0,1-1v-2Z" class="color333 svgShape"></path><path fill="#bbc3c7" d="M54.37274 49.54942A28.01674 28.01674 0 0032 52.50076v-33a27.89051 27.89051 0 0123.73115-2.49958A1.97159 1.97159 0 0157 18.86434V47.65148A2.0103 2.0103 0 0154.37274 49.54942zM9.62726 49.54942A28.01674 28.01674 0 0132 52.50076v-33A27.89051 27.89051 0 008.26885 17.00118 1.97159 1.97159 0 007 18.86434V47.65148A2.0103 2.0103 0 009.62726 49.54942z" class="colorfff svgShape"></path><path fill="#5e6b72" d="M48.70936,43.31711h0a4.40617,4.40617,0,0,1-6.64059-.47193l-9.26847-12.358,3.07918-3.07917,12.358,9.26847A4.40619,4.40619,0,0,1,48.70936,43.31711Z" class="colord741d1 svgShape"></path><path fill="#282e31" d="M56.07324,16.06131a28.7132,28.7132,0,0,0-24.07342,2.29437A28.70746,28.70746,0,0,0,7.92725,16.06131,2.973,2.973,0,0,0,6,18.864V47.65115a2.94141,2.94141,0,0,0,2,2.80127,3.00484,3.00484,0,0,0,3,3.04834H53a3.00478,3.00478,0,0,0,3-3.0481,2.94185,2.94185,0,0,0,2-2.80152L58,18.864A2.97416,2.97416,0,0,0,56.07324,16.06131ZM8,18.864a.96939.96939,0,0,1,.61084-.92383A26.73808,26.73808,0,0,1,31,20.076V50.79959A28.91306,28.91306,0,0,0,9.33789,48.59254.99722.99722,0,0,1,8,47.6512Zm2,31.63672a26.62346,26.62346,0,0,1,17.75873,1H11A1.001,1.001,0,0,1,10,50.50076Zm43,1H36.24036A26.71829,26.71829,0,0,1,54,50.48373,1.00123,1.00123,0,0,1,53,51.50076Zm3-3.84961a.99694.99694,0,0,1-1.33786.94146A28.94049,28.94049,0,0,0,33,50.79959V20.076a26.74,26.74,0,0,1,22.38965-2.13574A.969.969,0,0,1,56,18.864Z" class="color333 svgShape"></path><circle cx="27.392" cy="22.109" r="15.608" fill="#5e6b72" class="colord741d1 svgShape"></circle><path fill="#bbc3c7" d="M39,22.10894A11.60818,11.60818,0,0,1,27.39182,33.71712c-15.398-.61143-15.39363-22.60726.0001-23.21638A11.60819,11.60819,0,0,1,39,22.10894Z" class="colorfff svgShape"></path><path fill="#5e6b72" d="M26.5,27.61013a.99663.99663,0,0,1,1-1h0a.99693.99693,0,0,1,1,1h0a1.00256,1.00256,0,0,1-1,1h0A1.00224,1.00224,0,0,1,26.5,27.61013Z" class="colord741d1 svgShape"></path><path fill="#282e31" d="M50.98633,39.81717a5.401,5.401,0,0,0-2.14942-3.94043l-7.14666-5.36029c6.58784-10.73269-1.64109-25.196-14.2989-25.01554A16.62644,16.62644,0,0,0,10.78369,22.10916c-.18064,12.72491,14.42178,20.94549,25.14691,14.2185l5.33795,7.11841C44.41465,47.72794,51.4169,45.1157,50.98633,39.81717Zm-38.20264-17.708A14.62505,14.62505,0,0,1,27.3916,7.50076c19.37993.803,19.37429,28.41671-.00011,29.21682A14.62506,14.62506,0,0,1,12.78369,22.10916ZM48.002,42.61013a3.42836,3.42836,0,0,1-5.13378-.36431L37.58179,35.196a16.72431,16.72431,0,0,0,2.98889-3.0199l7.067,5.3003A3.42771,3.42771,0,0,1,48.002,42.61013Z" class="color333 svgShape"></path><path fill="#5e6b72" d="M27.5,25.60818c-.8823-.03031-1.07114-.79781-.99994-1.541a3.3453,3.3453,0,0,1,1.85736-3.00682l1.0376-.51758a2.09134,2.09134,0,0,0-.895-3.93457h-1a2.00229,2.00229,0,0,0-2,2,1.00019,1.00019,0,0,1-2-.00006c.05008-2.76766,2.38779-4.28306,5-3.99984,4.21354-.029,5.52979,5.88381,1.78943,7.72356l-1.03749.51755a1.35587,1.35587,0,0,0-.752,1.21778C28.56857,24.81068,28.38809,25.57573,27.5,25.60818Z" class="colord741d1 svgShape"></path></svg></g></svg>