<!-- icon666.com - MILLIONS vector ICONS FREE --><svg version="1.1" id="Capa_1" xmlns="http://www.w3.org/2000/svg" xmlns:xlink="http://www.w3.org/1999/xlink" x="0px" y="0px" viewBox="0 0 325 325" style="enable-background:new 0 0 325 325;" xml:space="preserve"><g id="XMLID_27_"><path id="XMLID_811_" d="M272.5,55h-65V30c0-16.568-13.432-30-30-30h-30c-16.568,0-30,13.432-30,30v25h-65 c-13.807,0-25,11.193-25,25v220c0,13.807,11.193,25,25,25h220c13.807,0,25-11.193,25-25V80C297.5,66.193,286.307,55,272.5,55z M267.5,295h-210V85h60v5c0,16.568,13.432,30,30,30h30c16.568,0,30-13.432,30-30v-5h60V295z M177.5,90h-30V30h30V90z"></path><rect id="XMLID_815_" x="87.5" y="150" width="150" height="30"></rect><rect id="XMLID_816_" x="87.5" y="210" width="150" height="30"></rect></g></svg>