<!-- icon666.com - MILLIONS vector ICONS FREE --><svg enable-background="new 0 0 32 32" viewBox="0 0 32 32" xmlns="http://www.w3.org/2000/svg"><g id="_x37_"><g><path d="m23 30h-14c-3.9 0-7-3.1-7-7v-9.7c0-2.4 1.3-4.7 3.3-6l7-4.3c2.3-1.4 5.1-1.4 7.3 0l7 4.3c2.1 1.3 3.3 3.5 3.3 6v9.7c.1 3.9-3 7-6.9 7zm-7-26c-.9 0-1.8.2-2.6.7l-7 4.3c-1.5 1-2.4 2.6-2.4 4.3v9.7c0 2.8 2.2 5 5 5h14c2.8 0 5-2.2 5-5v-9.7c0-1.7-.9-3.4-2.4-4.3l-7-4.3c-.8-.5-1.7-.7-2.6-.7z"></path></g><g><g><path d="m14 16h-2c-.6 0-1-.4-1-1v-2c0-.6.4-1 1-1h2c.6 0 1 .4 1 1v2c0 .6-.4 1-1 1z"></path></g><g><path d="m20 16h-2c-.6 0-1-.4-1-1v-2c0-.6.4-1 1-1h2c.6 0 1 .4 1 1v2c0 .6-.4 1-1 1z"></path></g><g><path d="m14 22h-2c-.6 0-1-.4-1-1v-2c0-.6.4-1 1-1h2c.6 0 1 .4 1 1v2c0 .6-.4 1-1 1z"></path></g><g><path d="m20 22h-2c-.6 0-1-.4-1-1v-2c0-.6.4-1 1-1h2c.6 0 1 .4 1 1v2c0 .6-.4 1-1 1z"></path></g></g></g></svg>