<!-- icon666.com - MILLIONS vector ICONS FREE --><svg id="Layer_1" viewBox="0 0 32 32" xmlns="http://www.w3.org/2000/svg" data-name="Layer 1"><path d="m6 27h20a1 1 0 0 0 1-1v-10a1 1 0 0 0 .71-.29l3-3a1 1 0 0 0 -.13-1.52l-14-10a1 1 0 0 0 -1.16 0l-4.42 3.15v-2.34a1 1 0 0 0 -1-1h-4a1 1 0 0 0 -1 1v6.63l-3.58 2.56a1 1 0 0 0 -.13 1.52l3 3a1 1 0 0 0 .71.29v10a1 1 0 0 0 1 1zm5.92-10h8.08v8h-8zm13.08 8h-3v-9a1 1 0 0 0 -1-1h-10.09a1 1 0 0 0 -1 1l.09 9h-3v-10a1 1 0 0 0 0-.19l9-6.57 9 6.57a1 1 0 0 0 0 .19zm-18-22h2v2.77l-2 1.43zm-3.46 9.13 12.46-8.9 12.46 8.9-1.56 1.56-10.31-7.5a1 1 0 0 0 -1.18 0l-10.31 7.5z"></path><path d="m30 29h-28a1 1 0 0 0 0 2h28a1 1 0 0 0 0-2z"></path></svg>