<!-- icon666.com - MILLIONS vector ICONS FREE --><svg id="Layer_1" enable-background="new 0 0 68 68" viewBox="0 0 68 68" xmlns="http://www.w3.org/2000/svg"><g><g><g><g><g><path d="m15.413 8.002h22.918v10.959h-22.918z" fill="#3d4a75" style="fill: rgb(61, 74, 117);"></path></g><g><g><path d="m49.7903748 48.279129v5.1148567h-45.2758613v-5.1148567c0-4.2057991 2.2821641-8.0803909 5.9605241-10.1196098l10.7542067-5.9619408 5.9232006 3.8848686 5.9232006-3.8848686 10.7542076 5.9619408c3.6783599 2.0392189 5.9605217 5.9138107 5.9605217 10.1196098z" fill="#70c1f9" style="fill: rgb(0, 153, 243);"></path></g><g><path d="m33.0756454 32.1975784-5.9232006 3.8848686 3.5910549 4.2116356c.4012718.4706192 1.14328.4192886 1.4759254-.1021042l3.9914856-6.2562675z" fill="#e9e9ff" style="fill: rgb(0, 0, 0);"></path></g><g><path d="m21.2292442 32.1975784 5.9232006 3.8848686-3.591053 4.2116356c-.4012737.4706192-1.1432819.4192886-1.4759274-.1021042l-3.9914837-6.2562675z" fill="#e9e9ff" style="fill: rgb(0, 0, 0);"></path></g></g><g><path d="m33.0782585 27.2793198v4.9227523l-5.9258137 3.8832932-5.9258117-3.8922806v-4.9137649z" fill="#ffcbba"></path></g><g><path d="m33.0782585 27.2793198v2.6407585c-1.7113838 1.3344193-3.8738613 2.1348457-6.2111187 2.1348457-2.0795822 0-4.0302181-.6348591-5.6405067-1.7298031v-3.0458012h11.8516254z" fill="#efb7a8"></path></g><g><path d="m36.3336868 12.4515142v9.1793661c0 5.209362-4.0719795 9.6805096-9.2803688 9.7811565-5.3064919.1025429-9.6429615-4.1705723-9.6429615-9.465517v-9.4950056c0-.5203495.4218273-.9421759.9421768-.9421759h17.0389767c.5203476.0000001.9421768.4218264.9421768.9421759z" fill="#ffcbba"></path></g><g><path d="m39.3633118 18.9591637c0 1.677557-1.3520699 3.0392647-3.0296249 3.0392647v-6.0688925c1.677555 0 3.0296249 1.3520689 3.0296249 3.0296278z" fill="#ffcbba"></path></g><g><path d="m36.9786263 16.0012245c-.2080231-.0449295-.4230156-.0716629-.6449699-.0716629v6.0689144c.2219543 0 .4369469-.0269585.6449699-.072113z" fill="#efb7a8"></path></g><g><path d="m14.3807297 18.9591637c0 1.677557 1.3520689 3.0392647 3.0296268 3.0392647v-6.0688925c-1.6775579 0-3.0296268 1.3520689-3.0296268 3.0296278z" fill="#ffcbba"></path></g><g><path d="m16.7653885 16.0012245c.208025-.0449295.4230137-.0716629.644968-.0716629v6.0689144c-.2219543 0-.4369431-.0269585-.644968-.072113z" fill="#efb7a8"></path></g><g><g><circle cx="22.847" cy="19.714" fill="#3d4a75" r=".898" style="fill: rgb(61, 74, 117);"></circle></g><g><circle cx="31.458" cy="19.714" fill="#3d4a75" r=".898" style="fill: rgb(61, 74, 117);"></circle></g></g><g><path d="m29.9117603 25.9078083c0 .7539349-.301712 1.4422779-.8011131 1.9419098-.49963.4901943-1.1783085.8011112-1.9419079.8011112h-.5939884c-1.5175323 0-2.7430191-1.2254868-2.7430191-2.743021z" fill="#efb7a8"></path></g><g><path d="m27.3533897 21.8124504v1.9888573c0 .210537-.1683884.3873558-.3873558.3873558-.210537 0-.3791313-.1768188-.3791313-.3873558v-1.9888573c0-.210537.1685944-.3873558.3791313-.3873558.2189675 0 .3873558.1768189.3873558.3873558z" fill="#efb7a8"></path></g><g><path d="m33.3418083 17.7361469-3.3226585-.0003643c-.2105808-.0000381-.3874683-.1686058-.3875122-.3877659-.0000401-.210722.1767826-.3794308.3873634-.3793926l3.3226585.0003643c.2105827.0000381.3874702.1688118.3875084.3795338.0000458.2191582-.1767768.3876629-.3873596.3876247z" fill="#3d4a75" style="fill: rgb(61, 74, 117);"></path></g><g><path d="m24.5081234 17.7361469-3.3226604-.0003643c-.2105808-.0000381-.3874683-.1686058-.3875103-.3877659-.000042-.210722.1767807-.3794308.3873615-.3793926l3.3226585.0003643c.2105808.0000381.3874683.1688118.3875103.3795338.000042.2191582-.1767788.3876629-.3873596.3876247z" fill="#3d4a75" style="fill: rgb(61, 74, 117);"></path></g><g><path d="m43.1283913 46.0810966v1.4488411c0 .1779594-.1332512.3112106-.3109932.3112106h-8.4892731c-.177742 0-.3112106-.1332512-.3112106-.3112106v-1.4488411c0-.1779594.1334686-.3112106.3112106-.3112106h8.4892731c.177742 0 .3109932.1332512.3109932.3112106z" fill="#e9e9ff" style="fill: rgb(0, 0, 0);"></path></g><g><path d="m41.4477959 5.0808458v1.3400879c0 1.6999512-1.3798828 3.0800781-3.079834 3.0800781h-22.959961v-4.3200683c0-1.76001 1.4299316-3.1799319 3.1899414-3.1799319h19.7700195c1.6999513 0 3.0798341 1.3798828 3.0798341 3.0798342z" fill="#3d4a75" style="fill: rgb(61, 74, 117);"></path></g></g><g><g><path d="m51.902832 54.9210968v9.5355759c0 .8450165-.6969376 1.5423126-1.5423164 1.5423126h-46.430985c-.8453779 0-1.5274732-.6972961-1.5274732-1.5423126v-9.5355759c0-.8450165.6820953-1.5271111 1.5274732-1.5271111h46.4309845c.8453794 0 1.5423169.6820946 1.5423169 1.5271111z" fill="#ed524e" style="fill: rgb(242, 242, 242);"></path></g><g><g><path d="m14.9997044 61.5976982c-.1397982.2348175-.3858118.3691559-.6374226.3691559-.1286039 0-.2517471-.0335846-.3691559-.1007538l-1.5601768-.9002304v1.8061905c0 .402607-.3298378.7325783-.7324419.7325783h-.0055981c-.4026041 0-.7325783-.3299713-.7325783-.7325783v-1.8061905l-1.5601768.9002304c-.3522272.2069664-.7996111.0839615-1.0064421-.2684021-.0671692-.1118126-.0951567-.2348213-.0951567-.3578262 0-.2573433.1286039-.5033569.3635588-.643158l1.5656385-.9002266-1.5656385-.9003639c-.3467665-.2068329-.4697733-.6542168-.2684021-1.0009842.1397982-.2348175.3858118-.3690186.6374226-.3690186.1286039 0 .2516108.0335846.3690195.1006165l1.5601768.9003639v-1.8061867c0-.402607.3299742-.7325821.7325783-.7325821h.0055981c.4026041 0 .7324419.3299751.7324419.7325821v1.8061867l1.5601768-.9003639c.3523636-.2068291.7997475-.0838242 1.0065784.2684021.0671692.1118126.0951567.2349548.0951567.3579636 0 .257206-.1286039.5032196-.3635588.6430206l-1.5657749.9003639 1.5657749.9002266c.3466302.2069702.4697734.6543541.2684022 1.0009842z" fill="#e9e9ff" style="fill: rgb(0, 0, 0);"></path></g><g><path d="m25.3028717 61.5976982c-.1397972.2348175-.3858109.3691559-.6374226.3691559-.128603 0-.2517471-.0335846-.3691559-.1007538l-1.5601768-.9002304v1.8061905c0 .402607-.3298378.7325783-.7324409.7325783h-.0055981c-.4026051 0-.7325783-.3299713-.7325783-.7325783v-1.8061905l-1.5601768.9002304c-.3522282.2069664-.799612.0839615-1.006443-.2684021-.0671692-.1118126-.0951557-.2348213-.0951557-.3578262 0-.2573433.128603-.5033569.3635578-.643158l1.5656395-.9002266-1.5656395-.9003639c-.3467655-.2068329-.4697723-.6542168-.2684021-1.0009842.1397991-.2348175.3858128-.3690186.6374226-.3690186.1286049 0 .2516117.0335846.3690205.1006165l1.5601768.9003639v-1.8061867c0-.402607.3299732-.7325821.7325783-.7325821h.0055981c.4026031 0 .7324409.3299751.7324409.7325821v1.8061867l1.5601768-.9003639c.3523636-.2068291.7997475-.0838242 1.0065784.2684021.0671692.1118126.0951576.2349548.0951576.3579636 0 .257206-.1286049.5032196-.3635597.6430206l-1.5657749.9003639 1.5657749.9002266c.3466301.2069702.4697743.6543541.2684021 1.0009842z" fill="#e9e9ff" style="fill: rgb(0, 0, 0);"></path></g><g><path d="m35.606041 61.5976982c-.139801.2348175-.3858109.3691559-.6374245.3691559-.1286011 0-.2517471-.0335846-.3691559-.1007538l-1.5601768-.9002304v1.8061905c0 .402607-.3298378.7325783-.7324409.7325783h-.0055962c-.4026051 0-.7325802-.3299713-.7325802-.7325783v-1.8061905l-1.5601768.9002304c-.3522282.2069664-.7996101.0839615-1.006443-.2684021-.0671692-.1118126-.0951557-.2348213-.0951557-.3578262 0-.2573433.1286049-.5033569.3635597-.643158l1.5656376-.9002266-1.5656376-.9003639c-.3467674-.2068329-.4697742-.6542168-.268404-1.0009842.1397991-.2348175.3858128-.3690186.6374226-.3690186.1286049 0 .2516117.0335846.3690205.1006165l1.5601768.9003639v-1.8061867c0-.402607.3299751-.7325821.7325802-.7325821h.0055962c.4026031 0 .7324409.3299751.7324409.7325821v1.8061867l1.5601768-.9003639c.3523636-.2068291.7997475-.0838242 1.0065804.2684021.0671692.1118126.0951538.2349548.0951538.3579636 0 .257206-.1286011.5032196-.3635559.6430206l-1.5657768.9003639 1.5657768.9002266c.34663.2069702.4697722.6543541.268402 1.0009842z" fill="#e9e9ff" style="fill: rgb(0, 0, 0);"></path></g><g><path d="m45.9092064 61.5976982c-.1397972.2348175-.3858109.3691559-.6374207.3691559-.1286049 0-.2517471-.0335846-.3691559-.1007538l-1.5601768-.9002304v1.8061905c0 .402607-.3298378.7325783-.7324409.7325783h-.0056c-.4026031 0-.7325783-.3299713-.7325783-.7325783v-1.8061905l-1.5601768.9002304c-.3522263.2069664-.7996101.0839615-1.006443-.2684021-.0671692-.1118126-.0951538-.2348213-.0951538-.3578262 0-.2573433.1286011-.5033569.3635559-.643158l1.5656395-.9002266-1.5656395-.9003639c-.3467636-.2068329-.4697723-.6542168-.2684021-1.0009842.139801-.2348175.3858147-.3690186.6374245-.3690186.1286049 0 .2516098.0335846.3690186.1006165l1.5601768.9003639v-1.8061867c0-.402607.3299751-.7325821.7325783-.7325821h.0056c.4026031 0 .7324409.3299751.7324409.7325821v1.8061867l1.5601768-.9003639c.3523636-.2068291.7997475-.0838242 1.0065765.2684021.0671692.1118126.0951576.2349548.0951576.3579636 0 .257206-.1286049.5032196-.3635597.6430206l-1.565773.9003639 1.565773.9002266c.3466301.2069702.4697761.6543541.2684021 1.0009842z" fill="#e9e9ff" style="fill: rgb(0, 0, 0);"></path></g></g></g></g><g><path d="m65.5979462 4.0410509v11.6599121c0 .579833-.3200684 1.079833-.8000488 1.3200674-.1999512.119873-.4399414.1799316-.6899414.1799316h-13.080082l-.1501465.1499023-.5598145.5600586-1.6599121 1.6501465c-.3100586.3198242-.8500977.0998535-.8500977-.3400879v-2.0200195h-1.0600586c-.8300781 0-1.5-.670166-1.5-1.499999v-11.6599121c0-.2500002.0600586-.4902346.1699219-.7001956.130127-.2399902.3200684-.4399414.5500488-.579834.2299805-.1401367.4899902-.2102051.7800293-.2102051h17.3601112c.8200685.0000001 1.4899904.6701661 1.4899904 1.4902347z" fill="#fdc72e"></path></g><g><path d="m56.6226807 13.5533857h-2.4053612c-.2953796 0-.5228653-.2606373-.4829254-.5533018l.4459991-3.2682915c-.5076294-.4384432-.7799797-1.1584778-.5999184-1.9200926.1707153-.6599755.7015572-1.199945 1.3615341-1.3615303 1.2646217-.313818 2.3861427.6369886 2.3861427 1.8461733 0 .5815496-.2538719 1.0939121-.6645966 1.4354496l.4421272 3.2688646c.0395586.2924815-.1878584.5527287-.4830015.5527287z" fill="#3d4a75" style="fill: rgb(61, 74, 117);"></path></g></g><g opacity=".2"><g><path d="m59.6677666 17.2009621h-8.6398926l-.1501465.1499023-.5598145.5600586-4.9001464-14.5700676c.130127-.2399902.3200684-.4399414.5500488-.579834.2299805-.1401367.4899902-.2102051.7800293-.2102051h7.9899902z" fill="#fff"></path></g><g><path d="m64.7978973 17.0210304c-.1999512.119873-.4399414.1799316-.6899414.1799316h-1.9699745l-4.9301758-14.6501457h2.7299805z" fill="#fff"></path></g></g></g></svg>