<?xml version="1.0" standalone="no"?>
<!DOCTYPE svg PUBLIC "-//W3C//DTD SVG 20010904//EN"
 "http://www.w3.org/TR/2001/REC-SVG-20010904/DTD/svg10.dtd">
<svg version="1.0" xmlns="http://www.w3.org/2000/svg"
 width="1280.000000pt" height="1280.000000pt" viewBox="0 0 1280.000000 1280.000000"
 preserveAspectRatio="xMidYMid meet">

<g transform="translate(0.000000,1280.000000) scale(0.100000,-0.100000)"
fill="#000000" stroke="none">
<path d="M4720 10454 c-211 -24 -416 -94 -565 -192 -82 -53 -221 -190 -253
-247 -77 -138 -91 -208 -92 -436 0 -130 7 -147 60 -154 62 -8 61 1 60 -442 -1
-345 -3 -405 -16 -418 -13 -13 -85 -15 -537 -15 -407 0 -547 -3 -636 -15 -541
-72 -961 -359 -1088 -743 l-28 -87 0 -2490 0 -2490 24 -80 c41 -136 131 -276
245 -382 172 -161 439 -294 696 -348 108 -22 228 -34 359 -36 62 -1 128 -5
146 -10 31 -9 32 -11 38 -79 7 -89 40 -142 116 -187 69 -41 146 -57 242 -50
90 7 152 32 210 84 53 48 78 103 79 171 0 45 3 54 23 60 12 4 251 7 531 6 488
-3 546 0 546 26 0 8 -96 107 -139 143 -11 9 -258 13 -985 17 -953 5 -972 6
-1046 27 -151 43 -265 108 -379 217 -127 123 -214 277 -257 456 -17 71 -18
199 -22 2280 -2 1507 0 2240 8 2317 22 234 117 451 252 579 143 135 322 218
523 243 63 8 740 11 2240 11 2303 0 2274 1 2465 -49 146 -38 310 -123 388
-200 50 -50 117 -150 138 -206 18 -48 19 -93 20 -960 1 -1497 1 -1511 20
-1530 10 -9 23 -13 33 -9 9 3 115 40 235 80 121 41 225 79 233 85 11 9 13 215
13 1138 0 1090 -1 1130 -20 1203 -40 152 -110 274 -227 392 -95 97 -164 146
-366 257 -48 26 -212 83 -307 106 -203 48 -277 53 -827 53 -452 0 -513 2 -527
16 -14 13 -16 65 -16 415 0 251 4 407 10 419 6 11 26 22 48 26 62 11 62 11 62
183 0 185 -13 251 -71 362 -118 227 -379 395 -729 469 -53 12 -848 23 -930 14z
m817 -385 c198 -46 340 -154 372 -284 7 -27 15 -114 18 -193 4 -87 10 -145 17
-150 6 -4 29 -11 51 -17 l40 -10 3 -419 c1 -301 -1 -423 -9 -432 -17 -21
-1781 -21 -1798 0 -8 9 -10 131 -9 432 l3 419 25 3 c45 5 80 24 85 46 2 11 6
91 7 176 3 155 3 155 36 211 62 109 199 191 387 232 11 3 169 5 352 6 302 1
339 -1 420 -20z"/>
<path d="M3170 7881 c-6 -12 -10 -92 -10 -190 0 -158 1 -171 19 -181 30 -16
3653 -14 3669 2 17 17 17 359 0 376 -9 9 -431 12 -1840 12 -1796 0 -1827 0
-1838 -19z"/>
<path d="M4900 7466 c-65 -18 -97 -37 -209 -122 -138 -105 -170 -178 -122
-272 25 -49 47 -67 169 -147 116 -74 155 -91 239 -100 94 -11 244 28 293 76 8
8 50 41 93 73 96 72 121 114 115 195 -3 39 -11 66 -28 89 -34 46 -243 182
-313 204 -67 21 -170 22 -237 4z m218 -91 c83 -20 131 -45 174 -93 115 -128
44 -292 -151 -349 -84 -24 -230 -15 -302 20 -72 35 -124 88 -144 147 -17 51
-14 82 15 140 23 45 53 72 117 104 88 44 190 55 291 31z"/>
<path d="M6778 7473 c7 -3 16 -2 19 1 4 3 -2 6 -13 5 -11 0 -14 -3 -6 -6z"/>
<path d="M3182 7334 c-21 -15 -22 -20 -22 -198 0 -139 3 -186 13 -194 9 -8
177 -12 533 -14 511 -3 520 -3 564 -25 70 -34 126 -88 157 -151 l28 -57 3
-625 c2 -476 6 -626 15 -632 7 -4 105 -8 218 -8 158 0 209 3 217 13 14 17 17
1088 4 1133 -28 90 -65 137 -191 242 -58 47 -157 132 -221 188 -63 56 -168
149 -233 206 -164 146 -127 138 -643 138 -364 0 -423 -2 -442 -16z"/>
<path d="M5913 7329 c-34 -17 -234 -182 -253 -209 -3 -4 -46 -43 -96 -86 -274
-237 -385 -339 -410 -377 l-29 -42 -3 -576 c-2 -518 -1 -579 13 -593 24 -24
416 -24 439 0 14 14 16 86 16 642 l0 627 26 50 c50 96 117 143 229 164 37 7
231 11 525 11 349 0 469 3 478 12 8 8 12 66 12 193 0 127 -4 185 -12 193 -9 9
-123 12 -453 12 -425 0 -441 -1 -482 -21z"/>
<path d="M3257 6653 c-4 -3 -7 -217 -7 -474 0 -428 2 -477 20 -572 42 -216
114 -368 258 -541 217 -260 587 -472 957 -550 l110 -22 3 -507 2 -507 23 -5
c12 -3 200 -4 417 -3 l395 3 5 509 5 510 110 22 c157 33 299 84 460 164 169
85 299 176 416 291 76 76 199 226 199 244 0 4 8 19 18 33 31 44 93 199 113
281 35 144 40 226 37 681 l-3 445 -415 0 -415 0 -6 -465 c-5 -442 -6 -468 -27
-530 -27 -81 -80 -172 -135 -228 -51 -53 -181 -139 -262 -175 -309 -135 -789
-123 -1079 27 -184 94 -286 207 -342 376 -16 49 -19 107 -24 525 l-5 470 -411
3 c-226 1 -413 -1 -417 -5z"/>
<path d="M11587 6550 c-136 -29 -383 -121 -605 -225 -44 -21 -67 -25 -130 -24
-58 2 -94 -4 -146 -21 l-70 -24 -140 18 c-78 10 -170 22 -206 26 -36 4 -101
13 -145 19 -100 14 -360 49 -480 63 -87 11 -165 6 -165 -11 0 -12 67 -38 145
-57 39 -8 113 -29 165 -44 52 -16 115 -33 140 -38 25 -6 70 -18 100 -27 30 -9
75 -21 100 -26 25 -6 74 -19 110 -30 136 -42 148 -54 83 -84 -252 -113 -261
-115 -349 -65 -33 18 -72 42 -89 54 -74 53 -126 58 -177 17 l-22 -19 23 -53
c13 -30 30 -69 39 -88 15 -31 15 -34 -3 -48 -11 -7 -29 -12 -40 -9 -11 3 -75
10 -143 16 -219 21 -232 -8 -26 -60 137 -34 139 -35 144 -65 l5 -30 120 -1
c80 0 140 -6 180 -17 32 -9 73 -17 91 -17 35 0 60 20 43 37 -19 19 2 41 59 61
53 18 236 76 342 107 42 12 83 22 242 59 157 37 294 10 586 -117 99 -43 131
-44 156 -5 9 14 4 24 -26 55 -21 21 -34 43 -30 49 4 6 33 27 65 47 62 40 73
69 38 101 -29 26 -81 30 -165 11 -85 -19 -126 -12 -126 23 0 19 50 62 73 62 7
0 17 4 23 9 5 5 41 21 79 36 236 90 391 165 451 218 87 77 48 103 -196 132
-19 2 -74 -4 -123 -15z"/>
<path d="M9460 5559 c-393 -211 -844 -492 -1262 -788 l-118 -82 0 -894 c0
-580 -4 -921 -11 -970 -25 -184 -107 -358 -229 -489 -127 -136 -315 -236 -500
-266 -41 -6 -407 -10 -991 -10 -725 0 -929 -3 -942 -13 -25 -19 -107 -129
-107 -144 0 -8 10 -17 23 -22 12 -5 261 -7 552 -6 292 1 541 -1 555 -5 23 -6
26 -13 33 -75 16 -147 115 -230 287 -242 140 -10 263 37 324 125 24 34 31 55
34 110 2 37 7 71 11 75 4 4 59 10 122 12 240 10 443 36 497 64 9 4 32 11 51
15 48 9 205 73 281 114 184 100 319 219 420 368 53 77 71 115 103 214 20 64
21 85 26 1001 l6 935 29 35 c27 33 362 380 682 709 187 191 254 263 254 273 0
17 -41 3 -130 -44z"/>
<path d="M2283 3423 c-10 -4 -13 -105 -13 -458 0 -404 2 -454 16 -459 9 -3
1259 -6 2778 -6 2135 0 2765 3 2774 12 17 17 17 889 0 906 -9 9 -639 12 -2778
11 -1521 0 -2771 -3 -2777 -6z m5412 -463 l0 -405 -2635 0 -2635 0 -3 408 -2
407 2637 -2 2638 -3 0 -405z"/>
<path d="M4997 3183 c-13 -12 -8 -103 6 -109 7 -2 33 4 58 15 24 12 50 21 57
21 9 0 12 -45 12 -190 l0 -190 75 0 75 0 0 190 c0 212 -3 204 71 170 66 -30
69 -28 69 40 l0 60 -208 0 c-115 0 -212 -3 -215 -7z"/>
<path d="M6036 3158 c-21 -50 -124 -341 -131 -371 -4 -15 -11 -30 -16 -32 -7
-5 -122 156 -135 189 -3 8 9 22 30 35 61 38 68 116 14 168 -29 28 -30 28 -184
31 l-154 4 0 -227 0 -226 73 3 72 3 5 80 5 80 18 -25 c10 -14 35 -50 55 -80
l38 -55 138 0 139 0 21 75 21 75 43 3 c53 4 68 -7 76 -56 4 -20 12 -52 17 -69
l11 -33 79 0 c78 0 80 1 73 22 -3 12 -37 115 -73 228 l-67 205 -77 3 -78 3
-13 -33z m-376 -48 c17 -10 20 -84 5 -99 -6 -5 -19 -11 -30 -13 -18 -3 -20 3
-23 60 -3 54 -1 62 15 62 10 0 25 -5 33 -10z m458 -118 c9 -27 9 -34 -3 -39
-31 -11 -47 5 -40 39 13 60 23 60 43 0z"/>
<path d="M2533 3173 c3 -5 38 -62 78 -128 l74 -120 5 -95 5 -95 73 -3 72 -3 0
97 c0 94 1 98 38 158 42 70 47 77 85 142 15 25 27 48 27 50 0 2 -22 4 -49 4
l-50 0 -43 -80 c-24 -44 -47 -80 -53 -80 -5 1 -27 37 -48 80 l-38 80 -90 0
c-50 0 -88 -3 -86 -7z"/>
<path d="M3014 3167 c-2 -7 -3 -107 -2 -222 l3 -210 175 0 175 0 3 33 3 32
-100 0 -101 0 0 65 0 65 75 0 75 0 0 29 c0 32 -14 41 -53 34 -15 -3 -43 -2
-62 1 l-35 7 0 59 0 60 95 0 95 0 0 30 0 30 -170 0 c-129 0 -172 -3 -176 -13z"/>
<path d="M3404 3167 c-2 -7 -3 -107 -2 -222 l3 -210 45 0 45 0 5 129 5 129 28
-89 c39 -120 49 -147 60 -161 10 -14 75 -17 93 -5 6 4 28 60 48 125 20 65 41
115 46 112 6 -4 10 -60 10 -126 l0 -120 68 3 67 3 0 220 0 220 -92 3 -92 3
-32 -106 c-18 -58 -35 -105 -39 -105 -3 0 -21 47 -40 105 l-34 105 -93 0 c-67
0 -95 -4 -99 -13z"/>
<path d="M3976 3172 c-8 -13 -6 -416 3 -430 6 -9 48 -12 177 -10 l169 3 3 33
3 32 -100 0 -101 0 0 65 0 65 75 0 75 0 0 30 c0 32 -2 33 -67 30 -76 -3 -83 3
-83 71 l0 59 95 0 95 0 0 30 0 30 -169 0 c-94 0 -172 -3 -175 -8z"/>
<path d="M4362 2958 l3 -223 43 -3 c38 -3 42 -1 43 20 0 13 1 67 2 120 1 54 6
98 11 99 6 1 37 -52 70 -117 l61 -119 75 0 75 0 3 223 2 222 -45 0 -45 0 0
-122 c0 -75 -4 -118 -9 -112 -5 5 -35 60 -66 122 l-57 112 -84 0 -84 0 2 -222z"/>
<path d="M6271 3173 c0 -5 33 -105 72 -223 l72 -215 80 0 80 0 71 205 c40 113
75 213 79 223 7 16 2 18 -50 15 l-58 -3 -46 -148 c-51 -165 -56 -167 -85 -49
-10 37 -26 97 -37 135 l-20 67 -79 0 c-44 0 -80 -3 -79 -7z"/>
<path d="M6767 3173 c-10 -9 -8 -415 1 -431 7 -9 49 -12 178 -10 l169 3 3 33
3 32 -100 0 -101 0 0 65 0 65 75 0 75 0 0 30 c0 29 -2 30 -44 30 -24 0 -58 3
-75 6 -30 6 -31 7 -31 65 l0 59 95 0 95 0 0 30 0 30 -168 0 c-93 0 -172 -3
-175 -7z"/>
<path d="M7160 2955 l0 -225 168 2 167 3 3 54 c2 30 -1 58 -5 62 -5 5 -47 -4
-96 -20 l-87 -30 -2 187 -3 187 -72 3 -73 3 0 -226z"/>
</g>
</svg>
