<!-- icon666.com - MILLIONS vector ICONS FREE --><svg id="Layer_1" viewBox="0 0 64 64" xmlns="http://www.w3.org/2000/svg" data-name="Layer 1"><g fill="#5eb2fc"><rect height="12" rx="5" width="10" x="27" y="2.001" fill="#5eb2fc"></rect><path d="m31 18.001-1 8 2 2 2-2-1-8" fill="#5eb2fc"></path><rect height="12" rx="5" width="10" x="46" y="32.001" fill="#5eb2fc"></rect><path d="m50 48.001-1 8 2 2 2-2-1-8" fill="#5eb2fc"></path><rect height="12" rx="5" width="10" x="8" y="32.001" fill="#5eb2fc"></rect><path d="m12 48.001-1 8 2 2 2-2-1-8" fill="#5eb2fc"></path></g><path d="m32 42a1 1 0 0 1 -1-1v-5a1 1 0 0 1 2 0v5a1 1 0 0 1 -1 1z" fill="#4c6375" style="fill: rgb(0, 143, 243);"></path><path d="m37 47a1 1 0 0 1 -.707-.293l-5-5a1 1 0 0 1 1.414-1.414l5 5a1 1 0 0 1 -.707 1.707z" fill="#4c6375" style="fill: rgb(0, 143, 243);"></path><path d="m27 47a1 1 0 0 1 -.707-1.707l5-5a1 1 0 0 1 1.414 1.414l-5 5a1 1 0 0 1 -.707.293z" fill="#4c6375" style="fill: rgb(0, 143, 243);"></path><path d="m32 33c-10.5 0-12.8-4.367-12.895-4.553a1 1 0 0 1 -.105-.447v-6.79a4.97 4.97 0 0 1 3.916-4.881l5.867-1.3a1 1 0 0 1 .924.269l1.707 1.702h1.172l1.707-1.707a1.007 1.007 0 0 1 .924-.269l5.867 1.3a4.97 4.97 0 0 1 3.916 4.886v6.79a1 1 0 0 1 -.1.447c-.1.187-2.4 4.553-12.9 4.553zm-11-5.3c.51.666 3.032 3.3 11 3.3 7.938 0 10.47-2.61 11-3.3v-6.49a2.982 2.982 0 0 0 -2.349-2.929l-5.332-1.181-1.612 1.612a1 1 0 0 1 -.707.288h-2a1 1 0 0 1 -.707-.293l-1.612-1.607-5.332 1.185a2.982 2.982 0 0 0 -2.349 2.925z" fill="#4c6375" style="fill: rgb(0, 143, 243);"></path><path d="m51 63c-10.5 0-12.8-4.367-12.9-4.553a1 1 0 0 1 -.1-.447v-6.79a4.973 4.973 0 0 1 3.915-4.882l5.868-1.3a1 1 0 0 1 .924.27l1.707 1.702h1.172l1.707-1.707a1.013 1.013 0 0 1 .924-.27l5.867 1.3a4.973 4.973 0 0 1 3.916 4.887v6.79a1 1 0 0 1 -.1.447c-.1.187-2.4 4.553-12.9 4.553zm-11-5.3c.51.665 3.032 3.3 11 3.3 7.938 0 10.47-2.61 11-3.3v-6.49a2.983 2.983 0 0 0 -2.35-2.929l-5.331-1.181-1.612 1.611a1 1 0 0 1 -.707.289h-2a1 1 0 0 1 -.707-.293l-1.612-1.607-5.332 1.184a2.983 2.983 0 0 0 -2.349 2.926z" fill="#4c6375" style="fill: rgb(0, 143, 243);"></path><path d="m13 63c-10.5 0-12.8-4.366-12.895-4.552a1 1 0 0 1 -.105-.448v-6.79a4.973 4.973 0 0 1 3.915-4.882l5.868-1.3a1 1 0 0 1 .924.27l1.707 1.702h1.172l1.707-1.707a1.012 1.012 0 0 1 .924-.27l5.867 1.3a4.973 4.973 0 0 1 3.916 4.887v6.79a1 1 0 0 1 -.105.447c-.095.187-2.395 4.553-12.895 4.553zm-11-5.3c.51.665 3.032 3.3 11 3.3 7.938 0 10.47-2.61 11-3.3v-6.49a2.983 2.983 0 0 0 -2.35-2.929l-5.331-1.181-1.612 1.611a1 1 0 0 1 -.707.289h-2a1 1 0 0 1 -.707-.293l-1.612-1.607-5.332 1.181a2.983 2.983 0 0 0 -2.349 2.929z" fill="#4c6375" style="fill: rgb(0, 143, 243);"></path></svg>