<!-- icon666.com - MILLIONS vector ICONS FREE --><svg id="Capa_1" enable-background="new 0 0 512 512" viewBox="0 0 512 512" xmlns="http://www.w3.org/2000/svg"><g><path d="m201.987 423.745h-53.277c-4.143 0-7.5 3.357-7.5 7.5s3.357 7.5 7.5 7.5h53.277c3.969 0 7.198 3.229 7.198 7.199 0 3.969-3.229 7.198-7.198 7.198h-99.57c-3.97 0-7.199-3.229-7.199-7.198 0-3.97 3.229-7.199 7.199-7.199h11.791c4.143 0 7.5-3.357 7.5-7.5s-3.357-7.5-7.5-7.5h-11.791c-12.24 0-22.199 9.959-22.199 22.199s9.959 22.198 22.199 22.198h99.57c12.24 0 22.198-9.958 22.198-22.198s-9.958-22.199-22.198-22.199z"></path><path d="m317.751 438.444h-19.957c-3.083-8.561-11.282-14.699-20.891-14.699-12.24 0-22.199 9.959-22.199 22.199s9.959 22.198 22.199 22.198c9.609 0 17.809-6.138 20.891-14.698h19.957c4.143 0 7.5-3.357 7.5-7.5s-3.357-7.5-7.5-7.5zm-40.848 14.699c-3.97 0-7.199-3.229-7.199-7.198 0-3.97 3.229-7.199 7.199-7.199 3.969 0 7.198 3.229 7.198 7.199 0 3.968-3.23 7.198-7.198 7.198z"></path><path d="m173.433 138.112c4.143 0 7.5-3.357 7.5-7.5v-13.897c0-4.143-3.357-7.5-7.5-7.5s-7.5 3.357-7.5 7.5v13.897c0 4.143 3.357 7.5 7.5 7.5z"></path><path d="m173.433 189.039c4.143 0 7.5-3.357 7.5-7.5v-13.898c0-4.143-3.357-7.5-7.5-7.5s-7.5 3.357-7.5 7.5v13.898c0 4.143 3.357 7.5 7.5 7.5z"></path><path d="m191.948 156.627h13.897c4.143 0 7.5-3.357 7.5-7.5s-3.357-7.5-7.5-7.5h-13.897c-4.143 0-7.5 3.357-7.5 7.5s3.357 7.5 7.5 7.5z"></path><path d="m141.021 156.627h13.898c4.143 0 7.5-3.357 7.5-7.5s-3.357-7.5-7.5-7.5h-13.898c-4.143 0-7.5 3.357-7.5 7.5s3.357 7.5 7.5 7.5z"></path><path d="m102.416 351.031h99.57c12.24 0 22.198-9.959 22.198-22.199s-9.958-22.198-22.198-22.198h-99.57c-12.24 0-22.199 9.959-22.199 22.199s9.959 22.198 22.199 22.198zm0-29.397h99.57c3.969 0 7.198 3.229 7.198 7.199 0 3.969-3.229 7.198-7.198 7.198h-99.57c-3.97 0-7.199-3.229-7.199-7.199 0-3.969 3.23-7.198 7.199-7.198z"></path><path d="m395.394 59.325c0-17.608-14.326-31.935-31.935-31.935s-31.934 14.326-31.934 31.935 14.325 31.934 31.934 31.934 31.935-14.325 31.935-31.934zm-48.868 0c0-9.338 7.597-16.935 16.934-16.935 9.338 0 16.935 7.597 16.935 16.935 0 9.337-7.597 16.934-16.935 16.934s-16.934-7.597-16.934-16.934z"></path><path d="m467.289 121.38c-4.088-.689-7.951 2.077-8.633 6.162-5.881 35.218-30.601 64.153-64.513 75.517-3.057 1.024-5.117 3.888-5.117 7.111v61.595l-18.984 10.044c-2.354 1.245-3.87 3.646-3.985 6.306-.114 2.66 1.19 5.183 3.428 6.626l19.542 12.604v59.153c0 3.153-1.104 6.23-3.107 8.664l-20.303 24.657c-.687.834-1.567.959-2.031.959s-1.346-.125-2.032-.959l-20.302-24.657c-2.005-2.434-3.108-5.511-3.108-8.664v-156.247c0-3.23-2.069-6.099-5.136-7.117-39.517-13.129-66.067-49.946-66.067-91.614 0-53.221 43.299-96.52 96.521-96.52 22.973 0 45.229 8.207 62.668 23.108 17.251 14.742 28.802 35.112 32.523 57.356.685 4.086 4.547 6.835 8.635 6.16 4.086-.684 6.844-4.55 6.16-8.635-4.303-25.717-17.647-49.257-37.574-66.285-20.154-17.22-45.871-26.704-72.414-26.704-61.492 0-111.52 50.027-111.52 111.52 0 46.314 28.393 87.441 71.203 104.004v47.251h-10.188v-14.118c0-12.011-9.771-21.782-21.782-21.782h-176.877c-12.011 0-21.782 9.771-21.782 21.782v14.118h-30.777c-12.843 0-23.292 10.444-23.292 23.282v85.549c0 6.085 2.35 11.63 6.188 15.782-3.837 4.152-6.188 9.697-6.188 15.781v85.549c0 12.838 10.449 23.282 23.292 23.282h281.994c12.843 0 23.292-10.444 23.292-23.282v-73.294c3.959-.783 7.555-2.888 10.174-6.069l20.303-24.658c4.209-5.113 6.527-11.576 6.527-18.198v-63.24c0-2.548-1.294-4.922-3.435-6.303l-12.214-7.878 11.656-6.167c2.456-1.299 3.992-3.851 3.992-6.629v-60.853c36.541-14.237 62.929-46.509 69.425-85.416.683-4.086-2.077-7.951-6.162-8.633zm-359.775 127.276c0-3.739 3.043-6.782 6.782-6.782h176.876c3.74 0 6.782 3.043 6.782 6.782v14.118h-190.44zm-54.069 37.401c0-4.566 3.72-8.282 8.292-8.282h261.406v45.852c-1.364-1.412-3.273-2.293-5.392-2.293h-19.957c-3.082-8.561-11.282-14.699-20.892-14.699-12.24 0-22.199 9.959-22.199 22.199s9.959 22.198 22.199 22.198c9.609 0 17.808-6.138 20.891-14.698h19.958c2.118 0 4.028-.882 5.392-2.293v32.458c0 4.688 1.182 9.284 3.354 13.39h-264.76c-4.572 0-8.292-3.716-8.292-8.282zm230.656 42.776c0 3.969-3.229 7.198-7.198 7.198-3.97 0-7.199-3.229-7.199-7.199 0-3.969 3.229-7.198 7.199-7.198 3.968 0 7.198 3.229 7.198 7.199zm59.63 168.167h-281.994c-4.572 0-8.292-3.716-8.292-8.282v-85.549c0-4.566 3.72-8.281 8.292-8.281h276.325c5.292 6.111 8.576 11.071 13.961 16.538v77.292c0 4.566-3.72 8.282-8.292 8.282z"></path><path d="m322.055 115.106c0 4.143 3.357 7.5 7.5 7.5h67.81c4.143 0 7.5-3.357 7.5-7.5s-3.357-7.5-7.5-7.5h-67.81c-4.142 0-7.5 3.358-7.5 7.5z"></path><circle cx="223.922" cy="194.552" r="7.5"></circle></g></svg>