<!-- icon666.com - MILLIONS vector ICONS FREE --><svg id="Layer_1" viewBox="0 0 60 60" xmlns="http://www.w3.org/2000/svg"><path d="m48.58 21h-1.88c-1.23.64-2.63 1-4.11 1s-2.88-.36-4.11-1h-.92c-2.2 0-4.22 1.11-5.42 2.98l-.96 1.55 3.37 5.41c.22.35.39.71.51 1.08l1.52-2.02v9c.01.16.01 11.5.01 11.5 0 1.93 1.57 3.5 3.5 3.5.97 0 1.86-.4 2.5-1.05.63.65 1.52 1.05 2.5 1.05 1.93 0 3.5-1.57 3.5-3.5v-11.6c.95-.19 1.83-.66 2.54-1.37.94-.95 1.45-2.21 1.45-3.53v-9c0-2.21-1.79-4-4-4z"></path><circle cx="42.59" cy="13" r="7"></circle><circle cx="17.42" cy="13" r="7"></circle><path d="m11.42 50.5c0 1.93 1.57 3.5 3.5 3.5.97 0 1.86-.4 2.5-1.06.63.66 1.52 1.06 2.5 1.06 1.92 0 3.5-1.57 3.5-3.5v-20.5l4.2 5.58c.55.74 1.39 1.2 2.3 1.26.93.08 1.82-.26 2.47-.91 1.06-1.05 1.25-2.66.46-3.93l-4.99-8.02c-1.19-1.87-3.21-2.98-5.42-2.98h-.91c-1.23.64-2.63 1-4.11 1s-2.88-.36-4.11-1h-1.89c-2.21 0-4 1.79-4 4v9c0 2.42 1.72 4.44 4 4.9z"></path></svg>