<!-- icon666.com - MILLIONS vector ICONS FREE --><svg id="Layer_1" viewBox="0 0 64 64" xmlns="http://www.w3.org/2000/svg" data-name="Layer 1"><path d="m61.64 20h-2.93a1.35 1.35 0 0 0 -1 .41l-6.55 6.54-38.76-1.58c-3.82-.15-7.49 2.5-9.93 5.44a2.08 2.08 0 0 0 0 2.67l.61.73c2.64 3.18 7.16 3.66 11 3.82q2.16.09 4.32.15l-2.8-1.24a1 1 0 0 1 .4-1.94h13a1 1 0 0 1 .59.18l3.88 2.82c3.3-.19 6.6-.5 9.89-1l12.33-1.83a2.36 2.36 0 0 0 1.91-1.61h1.9a1.5 1.5 0 0 0 0-3h-.9l3.4-10.11a.36.36 0 0 0 -.36-.45zm-47.64 10.58a.46.46 0 0 1 -.45.45h-8a.24.24 0 0 1 -.17-.42c2.15-2.06 4.57-3.25 6.71-3.25l1.45.06a.45.45 0 0 1 .44.45zm7 .42h-5v-3.49l5 .19zm7 0h-5v-3.23l5 .23zm7 0h-5v-3l5 .19zm7 0h-5v-2.72l5 .18zm7 0h-5v-2.5l5 .19z"></path><path d="m29 36h-13l17.49 7.62a2 2 0 0 0 1.15.38h4.64a.28.28 0 0 0 .2-.49z"></path><path d="m39.31 23.41a.2.2 0 0 0 -.1-.38h-4.65a2.68 2.68 0 0 0 -1.08.22l-4 1.8 7.26.29z"></path></svg>