<!-- icon666.com - MILLIONS vector ICONS FREE --><svg id="Layer_1" enable-background="new 0 0 64 64" viewBox="0 0 64 64" xmlns="http://www.w3.org/2000/svg"><g id="Plane"><path d="m11.6 51-2.6 2.6c-.4.4-.4 1 0 1.4.2.2.5.3.7.3s.5-.1.7-.3l2.6-2.6z"></path><path d="m27.9 56.7-2.3-11.3 30.2-25c2.6-2.3 4.6-7 4.7-10.6 0-2-.5-3.6-1.6-4.7s-2.7-1.6-4.7-1.6c-3.6 0-8.2 2.1-10.6 4.7l-25.1 30.3-11.3-2.3c-1-.2-2 .1-2.7.8l-.2.1c-.7.7-1 1.6-.8 2.6.2.9.7 1.7 1.6 2.2l6.8 4.4c-1.1 1.4-1.1 3.3-.3 4.7l1.6-1.5 2.3-2.3c.4-.4 1-.4 1.4 0s.4 1 0 1.4l-2.3 2.3-1.6 1.5c.7.4 1.4.6 2.2.6.9 0 1.8-.3 2.6-.9l4.4 6.8c.4.8 1.2 1.4 2.2 1.6h.5c.8 0 1.5-.3 2.1-.9l.1-.1c.7-.8 1-1.8.8-2.8zm-21.9-16.6c.1.1 0 .1 0 0zm47.8-24.5c-.1 0-.1 0-.2 0-.5 0-.9-.3-1-.8-.3-1.9-1.4-3-3.4-3.4-.5-.1-.9-.7-.8-1.2s.7-.9 1.2-.8c2.8.5 4.5 2.2 5 5 .1.7-.3 1.2-.8 1.2z"></path><path d="m25.2 27.3 1.2-1.5 7.5-9 1-1.1-5.7-1.9-2.2-.8.9-.9c.2-.2.3-.4.3-.7s-.1-.5-.3-.7c-.4-.4-1-.4-1.4 0l-1.6 1.6-2-.7-8.9-2.9c-1.1-.4-2.3-.1-3.1.7l-2.3 2.3c-.7.7-1 1.6-.9 2.5s.6 1.7 1.4 2.2l16 11z"></path><path d="m55.3 50.1-2.9-8.9-.7-2 1.5-1.5c.2-.2.3-.4.3-.7s-.1-.5-.3-.7c-.4-.4-1-.4-1.4 0l-.8.8-.7-2.2-1.9-5.7-1 1-9.1 7.6-1.6 1.1-.1.1 11 16c.5.8 1.3 1.3 2.2 1.4h.4c.8 0 1.5-.3 2.1-.9l2.3-2.3c.8-.8 1.1-2.1.7-3.1z"></path></g></svg>