<!-- icon666.com - MILLIONS vector ICONS FREE --><svg id="Layer_1" viewBox="0 0 36 36" xmlns="http://www.w3.org/2000/svg" data-name="Layer 1"><path d="m30.2 9.05c-2.48-1.89-5.59-2.98-8.95-2.98-8.39 0-15.19 6.8-15.19 15.19 0 3.1.93 5.98 2.56 8.35l1.23-3.18c.99-2.47 3.38-4.09 6.04-4.09h4.21c2.66 0 5.05 1.62 6.04 4.09l1.35 3.42c3.47-2.78 5.69-7.05 5.69-11.85 0-3.36-1.1-6.47-2.98-8.95zm-12.2 10.03c-2.99 0-5.42-2.43-5.42-5.42s2.43-5.42 5.42-5.42 5.42 2.43 5.42 5.42-2.43 5.42-5.42 5.42z" fill="#43d685" fill-rule="evenodd"></path><g fill="#0d0d0d"><path d="m18 19.9c-3.44 0-6.24-2.8-6.24-6.24s2.8-6.24 6.24-6.24 6.24 2.8 6.24 6.24-2.8 6.24-6.24 6.24zm0-10.85c-2.54 0-4.61 2.07-4.61 4.61s2.07 4.61 4.61 4.61 4.61-2.07 4.61-4.61-2.07-4.61-4.61-4.61z"></path><path d="m18 2c-8.82 0-16 7.18-16 16s7.18 16 16 16 16-7.18 16-16-7.18-16-16-16zm-8.52 27.55 1.13-2.82c.87-2.18 2.95-3.58 5.29-3.58h4.2c2.34 0 4.42 1.41 5.29 3.58l1.13 2.82c-2.39 1.76-5.33 2.82-8.52 2.82s-6.13-1.06-8.52-2.82zm18.35-1.1-.93-2.33c-1.12-2.8-3.79-4.6-6.8-4.6h-4.2c-3.01 0-5.68 1.81-6.8 4.6l-.93 2.33c-2.79-2.62-4.54-6.33-4.54-10.46 0-7.93 6.45-14.37 14.37-14.37s14.37 6.45 14.37 14.37c0 4.12-1.75 7.83-4.54 10.46z"></path></g></svg>