<!-- icon666.com - MILLIONS vector ICONS FREE --><svg enable-background="new 0 0 512 512" viewBox="0 0 512 512" xmlns="http://www.w3.org/2000/svg"><g id="_x32_3_x2C__Ad_x2C__blocker_x2C__digital_x2C__reject"><g><g><ellipse cx="256" cy="256" fill="#66d4f1" rx="225" ry="225" transform="matrix(.707 -.707 .707 .707 -106.039 256)" style="fill: rgb(0, 153, 243);"></ellipse><path d="m356.34 199.56-56.44 56.44 56.44 56.44-43.9 43.9-56.44-56.44-56.44 56.44-43.9-43.9 56.44-56.44-56.44-56.44 43.9-43.9 56.44 56.44 56.44-56.44z" fill="#e74c3c"></path><g fill="#ecf0f1"><path d="m256 436c-99.252 0-180-80.748-180-180 0-2.762 2.239-5 5-5s5 2.238 5 5c0 93.738 76.262 170 170 170 2.761 0 5 2.238 5 5s-2.239 5-5 5z" fill="#ecf0f1"></path><path d="m411.005 179.681c-1.798 0-3.535-.973-4.43-2.675-29.51-56.135-87.207-91.006-150.575-91.006-2.761 0-5-2.238-5-5s2.239-5 5-5c67.094 0 128.183 36.92 159.426 96.354 1.285 2.444.345 5.467-2.099 6.752-.742.389-1.538.575-2.322.575z" fill="#ecf0f1"></path></g></g></g></g></svg>