<!-- icon666.com - MILLIONS vector ICONS FREE --><svg viewBox="0 0 512 512" xmlns="http://www.w3.org/2000/svg"><g fill="rgb(0,0,0)"><path d="m356.5 386.3a7.5 7.5 0 0 0 -7.5 7.5v45.2h-253v-334h25.5a7.5 7.5 0 0 0 0-15h-28a12.514 12.514 0 0 0 -12.5 12.5v339a12.514 12.514 0 0 0 12.5 12.5h258a12.514 12.514 0 0 0 12.5-12.5v-47.7a7.5 7.5 0 0 0 -7.5-7.5z"></path><path d="m145 352.288h78.734a7.5 7.5 0 1 0 0-15h-78.734a7.5 7.5 0 0 0 0 15z"></path><path d="m145 383.288h111a7.5 7.5 0 0 0 0-15h-111a7.5 7.5 0 0 0 0 15z"></path><path d="m267.249 337.288a7.5 7.5 0 0 0 0 15h9.751a7.5 7.5 0 0 0 0-15z"></path><path d="m256 399.288h-26.235a7.5 7.5 0 0 0 0 15h26.235a7.5 7.5 0 0 0 0-15z"></path><path d="m166.938 399.288a7.5 7.5 0 0 0 0 15h37.91a7.5 7.5 0 0 0 0-15z"></path><circle cx="245.289" cy="344.788" r="7.5"></circle><circle cx="145" cy="406.788" r="7.5"></circle><path d="m222.5 311.617a77.5 77.5 0 1 0 -77.5-77.5 77.587 77.587 0 0 0 77.5 77.5zm7.5-139.534a62.448 62.448 0 0 1 51.825 81.661l-51.825-24.384zm-15 0v62.037a7.49 7.49 0 0 0 4.31 6.78l56.111 26.408a62.483 62.483 0 1 1 -60.421-95.225z"></path><path d="m469.036 176.462a32.251 32.251 0 0 0 -10.36-14.354l3.527-7.561a32.46 32.46 0 0 0 -15.703-43.147l-.051-.023a32.5 32.5 0 0 0 -42.449 14.423v-48.3a27.531 27.531 0 0 0 -27.5-27.5h-17.67a7.5 7.5 0 0 0 0 15h17.67a12.514 12.514 0 0 1 12.5 12.5v80.368l-25 53.592v-108.96a12.514 12.514 0 0 0 -12.5-12.5h-41.5v-25h18.83a7.5 7.5 0 0 0 0-15h-58.83v-14.5a17.521 17.521 0 0 0 -17.5-17.5h-60a17.521 17.521 0 0 0 -17.5 17.5v14.5h-106.5a27.531 27.531 0 0 0 -27.5 27.5v389a27.531 27.531 0 0 0 27.5 27.5h308a27.531 27.531 0 0 0 27.5-27.5v-187.185l47.984-102.862a17.392 17.392 0 0 1 2.374 18.49l-44.568 95.539a7.5 7.5 0 1 0 13.593 6.341l44.569-95.539a32.246 32.246 0 0 0 1.084-24.822zm-115.256 106.561 2.988 1.393 17.814 8.3-46.766 100.255-20.616 17.042-.19-26.734zm-163.78-247.523a2.5 2.5 0 0 1 2.5-2.5h60a2.5 2.5 0 0 1 2.5 2.5v14.5h-65zm-40 29.5h145v25h-145zm120 40v17h-95v-17zm106.5 374h-308a12.514 12.514 0 0 1 -12.5-12.5v-389a12.514 12.514 0 0 1 12.5-12.5h66.5v32.5a7.5 7.5 0 0 0 7.5 7.5h17.5v24.5a7.5 7.5 0 0 0 7.5 7.5h110a7.5 7.5 0 0 0 7.5-7.5v-24.5h64v138.614l-8.961 19.209a12.419 12.419 0 0 0 -.418 9.56 12.567 12.567 0 0 0 1.342 2.635l-48.263 103.452a7.5 7.5 0 0 0 -.7 3.224l.24 33.688a12.4 12.4 0 0 0 7.216 11.24 12.4 12.4 0 0 0 13.248-1.694l25.973-21.472a7.5 7.5 0 0 0 2.018-2.61l48.26-103.453c.015 0 .03-.007.045-.008v169.115a12.514 12.514 0 0 1 -12.5 12.5zm9.855-197.342-31.665-14.758 52.754-113.086 21.567 10.053 10.1 4.707zm62.254-133.452-3.159 6.772-21.567-10.053-10.1-4.707 3.164-6.781a17.481 17.481 0 0 1 23.2-8.444l.043.02a17.46 17.46 0 0 1 8.417 23.193z"></path></g></svg>