<!-- icon666.com - MILLIONS vector ICONS FREE --><svg id="Layer_1" viewBox="0 0 512 512" xmlns="http://www.w3.org/2000/svg" xmlns:xlink="http://www.w3.org/1999/xlink" data-name="Layer 1"><linearGradient id="GradientFill_1" gradientUnits="userSpaceOnUse" x1="256.001" x2="256.002" y1="512.229" y2=".231"><stop offset="0" stop-color="#6c54a3"></stop><stop offset="1" stop-color="#00b1d2"></stop></linearGradient><path d="m256 .231c141.38 0 256 114.659 256 256.035s-114.62 255.963-256 255.963c-141.391 0-256-114.587-256-255.963s114.613-256.035 256-256.035zm-114.083 129.869 15.563 8.978a5.426 5.426 0 0 0 2.617.68 5.226 5.226 0 0 0 2.626-9.749l-15.564-9.024a5.257 5.257 0 0 0 -5.242 9.115zm-1.917 72.734a5.251 5.251 0 0 0 4.544 2.63 5.48 5.48 0 0 0 2.611-.725l15.564-8.979a5.238 5.238 0 1 0 -5.243-9.069l-15.563 8.979a5.242 5.242 0 0 0 -1.913 7.164zm-17.513-45.165a5.22 5.22 0 0 0 -5.247 5.215 5.288 5.288 0 0 0 5.247 5.26h30.822a5.28 5.28 0 0 0 5.242-5.26 5.213 5.213 0 0 0 -5.242-5.215zm144.36 30.931a5.24 5.24 0 0 0 1.919 7.164l15.562 8.979a5.49 5.49 0 0 0 2.617.725 5.25 5.25 0 0 0 2.625-9.794l-15.558-8.979a5.211 5.211 0 0 0 -7.165 1.905zm0-51.469a5.165 5.165 0 0 0 4.544 2.63 5.464 5.464 0 0 0 2.621-.68l15.558-8.981a5.257 5.257 0 0 0 -5.242-9.115l-15.562 9.024a5.188 5.188 0 0 0 -1.919 7.119zm42.153 31.013a5.284 5.284 0 0 0 5.243-5.26 5.216 5.216 0 0 0 -5.243-5.215h-30.825a5.213 5.213 0 0 0 -5.238 5.215 5.28 5.28 0 0 0 5.238 5.26zm-102.74-18.864a8.181 8.181 0 0 0 4.244 6.984v-13.964a8.178 8.178 0 0 0 -4.244 6.983zm18.973 27.208a8.186 8.186 0 0 0 -4.249-6.983v13.921a8.115 8.115 0 0 0 4.249-6.938zm-18.973 0a5.242 5.242 0 1 0 -10.484 0c0 8.661 6.248 16.007 14.728 18.139v3.809a5.24 5.24 0 0 0 10.48 0v-3.809c8.48-2.132 14.728-9.478 14.728-18.139s-6.248-16.007-14.728-18.184v-16.004a8.186 8.186 0 0 1 4.249 6.983 5.24 5.24 0 0 0 10.479 0c0-8.661-6.248-16.007-14.728-18.184v-3.718a5.24 5.24 0 1 0 -10.48 0v3.719c-8.48 2.177-14.728 9.523-14.728 18.184s6.248 16.007 14.728 18.139v16.007a8.108 8.108 0 0 1 -4.244-6.938zm9.486 39.588a53.215 53.215 0 1 0 -53.209-53.192 53.255 53.255 0 0 0 53.209 53.192zm96.951 101.4a7.059 7.059 0 0 0 -3.219-5.805v11.609a7.119 7.119 0 0 0 3.219-5.8zm-16.923-25.3a7.151 7.151 0 0 0 3.224 5.8v-11.613a7.089 7.089 0 0 0 -3.224 5.8zm16.923 0a5.242 5.242 0 0 0 10.484 0c0-8.162-5.8-15.055-13.7-17.186v-3.265a5.24 5.24 0 0 0 -10.48 0v3.265c-7.9 2.131-13.7 9.024-13.7 17.186 0 8.117 5.8 15.01 13.7 17.141v13.967a7.089 7.089 0 0 1 -3.224-5.8 5.24 5.24 0 0 0 -10.48 0c0 8.162 5.8 15.054 13.7 17.186v3.174a5.24 5.24 0 1 0 10.48 0v-3.174c7.9-2.132 13.7-9.024 13.7-17.186s-5.8-15.055-13.7-17.232v-13.889a7.119 7.119 0 0 1 3.219 5.8zm-137.423 44.385a7.1 7.1 0 0 0 3.22 5.805v-11.609a7.16 7.16 0 0 0 -3.22 5.8zm16.926 25.349a7.034 7.034 0 0 0 -3.22-5.8v11.608a7.157 7.157 0 0 0 3.22-5.8zm-16.924 0a5.24 5.24 0 1 0 -10.479 0c0 8.117 5.8 15.01 13.7 17.186v3.175a5.242 5.242 0 0 0 10.484 0v-3.171c7.9-2.176 13.7-9.069 13.7-17.186a18.115 18.115 0 0 0 -13.7-17.232v-13.925a7.16 7.16 0 0 1 3.22 5.8 5.24 5.24 0 1 0 10.479 0c0-8.117-5.795-15.009-13.7-17.186v-3.22a5.242 5.242 0 0 0 -10.484 0v3.22c-7.9 2.177-13.7 9.069-13.7 17.186 0 8.163 5.8 15.056 13.7 17.187v13.966a7.157 7.157 0 0 1 -3.22-5.8zm243.224-251.446a5.252 5.252 0 0 0 -5.242-5.261h-48.485a5.261 5.261 0 0 0 0 10.521h37.248l-102.8 122.345-106.7.816a5.164 5.164 0 0 0 -3.768 1.632l-76.395 80.672a5.223 5.223 0 0 0 .2 7.392 5.46 5.46 0 0 0 3.605 1.4 5.22 5.22 0 0 0 3.8-1.632l74.862-78.994 106.891-.771a5.231 5.231 0 0 0 3.973-1.905l102.331-121.841v34.146a5.24 5.24 0 0 0 10.48 0zm-17.033 296.793a6.553 6.553 0 1 0 0-13.105h-68.142a6.553 6.553 0 1 0 0 13.105zm-136.606-102.484a39.375 39.375 0 1 0 39.374-39.36 39.476 39.476 0 0 0 -39.374 39.36zm26.519 48.793a5.667 5.667 0 0 0 -.032-.589 51.07 51.07 0 0 1 -13.626-5.94h-44.182c.036.68.059 1.451.059 2.176a50.508 50.508 0 0 1 -1.211 10.929h52.448a6.592 6.592 0 0 0 6.544-6.576zm-6.544 53.691a6.553 6.553 0 0 0 0-13.105h-68.142a6.553 6.553 0 1 0 0 13.105zm-116.631 0a6.534 6.534 0 0 0 6.553-6.53 6.14 6.14 0 0 0 -.54-2.539 51.8 51.8 0 0 1 -12.058-4.036h-62.1a6.553 6.553 0 1 0 0 13.105zm-68.147-60.22a6.506 6.506 0 0 0 -6.555 6.529 6.6 6.6 0 0 0 6.555 6.576h35.026a50.2 50.2 0 0 1 -1.211-10.929c0-.725.023-1.5.059-2.176zm0 36.64h47.7a50.793 50.793 0 0 1 -9.06-13.06h-38.64a6.53 6.53 0 1 0 0 13.06zm83.678-73.825a39.361 39.361 0 1 0 39.374 39.361 39.429 39.429 0 0 0 -39.374-39.361zm26.405-3.491c0 .226.009.453.028.635a47.523 47.523 0 0 1 7.795 6.031 7.5 7.5 0 0 1 1.029-.091h36.055a50.79 50.79 0 0 1 -.675-8.163 49.473 49.473 0 0 1 .253-4.942h-37.932a6.56 6.56 0 0 0 -6.553 6.53zm16.235 17.05a49.588 49.588 0 0 1 5.573 13.105h33.837a50.148 50.148 0 0 1 -7.8-13.105zm58.46 47.206h-56.057a50.8 50.8 0 0 1 -9.061 13.06h65.118a6.53 6.53 0 1 0 0-13.06zm123.184 6.529a6.528 6.528 0 0 0 -6.553-6.529h-68.142a6.53 6.53 0 1 0 0 13.06h68.142a6.528 6.528 0 0 0 6.553-6.531zm0-23.58a6.5 6.5 0 0 0 -6.553-6.529h-68.142a6.5 6.5 0 0 0 -6.557 6.529 6.6 6.6 0 0 0 6.557 6.576h68.142a6.6 6.6 0 0 0 6.553-6.576zm0-23.58a6.538 6.538 0 0 0 -6.553-6.575h-50.982a50.138 50.138 0 0 1 -7.8 13.105h58.778a6.557 6.557 0 0 0 6.553-6.53zm0-23.625a6.557 6.557 0 0 0 -6.553-6.53h-47.627a48.026 48.026 0 0 1 .249 4.942 51.838 51.838 0 0 1 -.661 8.163h48.039a6.567 6.567 0 0 0 6.553-6.575zm0-23.58a6.558 6.558 0 0 0 -6.553-6.531h-56.41a48.264 48.264 0 0 1 6.57 13.106h49.84a6.567 6.567 0 0 0 6.553-6.575zm-81.252-23.581a7.431 7.431 0 0 0 .123 1.225 52.117 52.117 0 0 1 8.289 5.305h66.287a6.553 6.553 0 1 0 0-13.105h-68.142a6.571 6.571 0 0 0 -6.557 6.575z" fill="url(#GradientFill_1)" fill-rule="evenodd"></path></svg>