<!-- icon666.com - MILLIONS vector ICONS FREE --><svg fill="none" viewBox="0 0 24 24" xmlns="http://www.w3.org/2000/svg"><path clip-rule="evenodd" d="m4 0c-1.65685 0-3 1.34314-3 3v18c0 1.6569 1.34315 3 3 3h16c1.6569 0 3-1.3431 3-3v-13.72679c0-.74629-.2782-1.4658-.7802-2.01801l-3.8847-4.273218c-.5686-.625424-1.3746-.981982-2.2198-.981982zm0 2c-.55229 0-1 .44772-1 1v18c0 .5523.44772 1 1 1v-7c0-.5523.44772-1 1-1h14c.5523 0 1 .4477 1 1v7c.5523 0 1-.4477 1-1v-13.72679c0-.24876-.0927-.4886-.2601-.67267l-3.8847-4.27321c-.1895-.20848-.4582-.32733-.7399-.32733h-.1153v5c0 .55228-.4477 1-1 1h-7c-.55228 0-1-.44772-1-1v-5zm5 0v4h5v-4zm9 20h-12v-6h12z" fill="rgb(0,0,0)" fill-rule="evenodd"></path></svg>