<!-- icon666.com - MILLIONS vector ICONS FREE --><svg id="Layer_1" enable-background="new 0 0 512 512" viewBox="0 0 512 512" xmlns="http://www.w3.org/2000/svg"><path d="m203.896 473.632c-1.609-4.047.367-8.632 4.415-10.241 4.047-1.609 8.632.367 10.241 4.414s-.368 8.632-4.415 10.241-8.633-.367-10.241-4.414zm201.418-48.286v13.99l12.586.108c5.221.045 10.119 2.129 13.793 5.866 3.675 3.738 5.673 8.672 5.629 13.892l-.218 25.378c-.093 10.744-8.863 19.422-19.587 19.422-.058 0-.114 0-.171 0l-131.831-1.133c-5.221-.045-10.119-2.129-13.793-5.866-3.675-3.738-5.673-8.672-5.629-13.892l.218-25.378c.093-10.744 8.863-19.422 19.587-19.422h.171l10.186.088-.081-66.649c-.007-6.245.256-12.78 1.295-19.258-11.126 7.374-22.35 14.406-33.22 20.792-2.584 1.517-5.418 2.274-8.25 2.274s-5.663-.758-8.244-2.272c-10.871-6.386-22.095-13.419-33.222-20.792 1.039 6.478 1.302 13.012 1.295 19.257l-.081 66.649 10.186-.088c10.806-.101 19.665 8.62 19.758 19.422l.218 25.378c.044 5.22-1.954 10.153-5.629 13.892-3.674 3.737-8.572 5.821-13.793 5.866l-131.831 1.133c-.057 0-.113 0-.17 0-10.726.001-19.495-8.677-19.588-19.422l-.218-25.378c-.044-5.22 1.954-10.153 5.629-13.892 3.674-3.737 8.572-5.821 13.793-5.866l12.586-.108v-13.99l-73.513-73.511c-12.507-12.506-18.859-28.277-18.37-45.61l4.752-167.703c.305-10.81 7.831-20.838 18.018-26.017 2.235-22.158 9.795-42.567 22.019-59.288 12.644-17.295 30.009-30.416 50.22-37.944 23.22-8.649 49.069-9.603 74.751-2.762 25.182 6.709 49.74 20.966 71.438 41.408 21.696-20.441 46.254-34.698 71.436-41.407 25.683-6.842 51.533-5.89 74.753 2.761 20.21 7.528 37.575 20.648 50.219 37.942 12.229 16.727 19.791 37.146 22.022 59.316 10.175 5.183 17.709 15.188 18.015 25.991l4.751 167.702c.489 17.335-5.863 33.106-18.37 45.611zm-351.173-316.467c9.358.567 33.985 6.877 33.795 57.199l-.194 51.054c1.976 2.719 4.018 5.449 6.163 8.194 4.405-23.279 20.241-42.102 41.257-50.866-7.52-7.107-12.226-17.161-12.226-28.3 0-21.481 17.477-38.958 38.958-38.958s38.958 17.476 38.958 38.958c0 11.147-4.713 21.208-12.243 28.316 9.52 3.983 18.101 10.083 25.06 17.926 4.753-3.666 9.991-6.718 15.6-9.057-7.52-7.107-12.226-17.161-12.226-28.299 0-21.481 17.477-38.958 38.957-38.958 21.481 0 38.958 17.476 38.958 38.958 0 11.139-4.707 21.193-12.226 28.299 5.608 2.339 10.847 5.391 15.599 9.056 6.959-7.843 15.541-13.943 25.061-17.926-7.529-7.108-12.243-17.169-12.243-28.316 0-21.481 17.477-38.958 38.957-38.958 21.481 0 38.958 17.476 38.958 38.958 0 11.139-4.706 21.193-12.226 28.3 21.016 8.764 36.852 27.586 41.257 50.865 2.145-2.746 4.187-5.476 6.163-8.194l-.195-51.053c-.19-50.322 24.437-56.633 33.795-57.2-5.397-37.137-27.78-66.144-61.255-78.613-43.59-16.237-94.02-1.113-134.899 40.455-1.504 1.529-3.56 2.391-5.704 2.391s-4.2-.861-5.704-2.391c-40.881-41.568-91.31-56.693-134.899-40.455-33.476 12.472-55.859 41.479-61.256 78.615zm370.216 134.153c-3.875 4.671-7.953 9.36-12.247 14.056 2.414 1.312 4.676 2.976 6.704 5.003 1.725 1.726 3.201 3.549 4.429 5.45.799-3.312 1.183-6.749 1.169-10.363zm-103.194-19.272h80.16c-6.358-22.549-27-38.635-51.205-38.64-.003 0-.007 0-.011 0-.003 0-.006 0-.009 0-15.586.003-30.239 6.817-40.296 18.479 4.833 5.958 8.708 12.747 11.361 20.161zm-118.964-20.162c-10.058-11.662-24.71-18.476-40.296-18.479-.003 0-.006 0-.009 0s-.007 0-.011 0c-24.206.005-44.847 16.091-51.205 38.64h80.16c2.653-7.413 6.528-14.201 11.361-20.161zm-40.315-34.479h.01.012c12.653-.007 22.946-10.302 22.946-22.958 0-12.659-10.299-22.958-22.958-22.958s-22.958 10.299-22.958 22.958c0 12.657 10.293 22.953 22.948 22.958zm42.901 63.527h102.432c-6.359-22.552-27.006-38.64-51.216-38.64s-44.857 16.087-51.216 38.64zm51.215-54.641c12.659 0 22.958-10.299 22.958-22.958s-10.298-22.957-22.958-22.957c-12.658 0-22.957 10.299-22.957 22.958s10.299 22.957 22.957 22.957zm94.095-8.886h.012.01c12.654-.005 22.948-10.302 22.948-22.958 0-12.659-10.299-22.958-22.958-22.958-12.658 0-22.957 10.299-22.957 22.958 0 12.656 10.292 22.952 22.945 22.958zm-250.205 87.969c-4.294-4.696-8.373-9.385-12.247-14.055l-.054 14.145c-.014 3.614.369 7.051 1.17 10.363 1.228-1.902 2.703-3.725 4.428-5.45 2.028-2.027 4.29-3.69 6.703-5.003zm-5.652 198.355c-1.276.011-2.126.683-2.52 1.083-.393.399-1.051 1.261-1.039 2.538l.218 25.378c.017 1.936 1.658 3.559 3.591 3.559h.03l131.831-1.133c1.276-.011 2.126-.683 2.52-1.083.393-.399 1.051-1.261 1.039-2.538l-.218-25.378c-.011-1.276-.683-2.126-1.083-2.519-.396-.391-1.247-1.04-2.507-1.04-.01 0-.021 0-.031 0zm105.509-16.907.081-66.806c.019-14.936-1.528-30.165-12.864-40.382-3.725-3.357-8.203-7.132-13.389-11.502-14.897-12.555-33.407-28.154-48.991-46.479-6.19-5.283-14.746-5.299-20.082.038-7.018 7.018-4.039 14.59-.195 19.79 7.828 8.807 16.036 16.755 24.723 25.162 4.136 4.002 8.411 8.141 12.72 12.449 3.124 3.124 3.124 8.189-.001 11.313-1.562 1.562-3.609 2.343-5.656 2.343-2.048 0-4.095-.781-5.657-2.344-4.215-4.215-8.443-8.308-12.532-12.265-8.993-8.703-25.96-26.488-25.996-26.532-1.567-1.915-6.262-7.667-6.262-7.667-9.516-11.715-14.109-24.315-14.056-38.538l.347-91.1c.098-25.596-7.089-40.993-19.224-41.187-.076-.001-.152-.002-.229-.002-8.229 0-16.734 7.072-16.934 14.146l-4.752 167.703c-.367 13.007 4.238 24.395 13.689 33.844l75.856 75.854c1.5 1.501 2.343 3.535 2.343 5.657v17.166zm109.046-113.215c1.631-2.035 3.465-3.994 5.533-5.858 3.921-3.535 8.714-7.574 13.788-11.851 14.56-12.271 32.68-27.543 47.472-45.031.233-.275.484-.534.752-.775 4.936-4.45 10.85-7.108 16.899-7.993 4.512-4.693 8.825-9.382 12.905-14.053h-81.317c.001.011.003.023.004.034.242 2.257-.486 4.51-2.004 6.198s-3.681 2.652-5.95 2.652l-121.752.001c-2.27 0-4.433-.964-5.95-2.652s-2.246-3.941-2.004-6.199c.001-.012.003-.023.004-.035h-81.317c4.081 4.671 8.393 9.36 12.905 14.053 6.05.885 11.964 3.543 16.9 7.993.268.241.52.5.752.775 14.791 17.488 32.911 32.76 47.471 45.03 5.075 4.277 9.868 8.316 13.79 11.852 2.069 1.865 3.903 3.826 5.535 5.861 17.21 12.225 35.388 24.025 52.646 34.163.086.05.142.067.156.069-.01-.002.048-.02.137-.072 17.255-10.135 35.434-21.936 52.645-34.162zm108.97 130.122-131.831-1.133c-.01 0-.021 0-.03 0-1.933 0-3.574 1.623-3.591 3.559l-.218 25.378c-.012 1.277.646 2.139 1.039 2.538.394.4 1.243 1.072 2.52 1.083l131.831 1.133h.03c1.933 0 3.574-1.623 3.591-3.559l.218-25.378c.012-1.277-.646-2.139-1.039-2.538-.394-.4-1.243-1.072-2.52-1.083zm-28.449-16.245v-17.166c0-2.122.843-4.156 2.343-5.657l75.855-75.854c9.451-9.449 14.057-20.836 13.689-33.845l-4.751-167.701c-.2-7.073-8.705-14.146-16.934-14.146-.076 0-.152 0-.229.002-12.134.194-19.32 15.591-19.224 41.187l.348 91.1c.054 14.223-4.54 26.823-14.042 38.521 0 0-4.706 5.763-6.275 7.684-.036.044-17.007 17.833-26.002 26.538-4.088 3.955-8.314 8.046-12.527 12.26-1.562 1.562-3.609 2.343-5.657 2.343s-4.095-.781-5.657-2.343c-3.124-3.125-3.124-8.189 0-11.314 4.307-4.306 8.581-8.442 12.715-12.442 8.688-8.409 16.899-16.358 24.729-25.168 3.844-5.201 6.823-12.772-.195-19.79-5.334-5.336-13.892-5.324-20.082-.037-15.585 18.323-34.095 33.923-48.992 46.479-5.185 4.37-9.663 8.144-13.387 11.501-11.337 10.217-12.884 25.446-12.865 40.382l.081 66.806zm-91.45 38.848c4.047 1.609 8.632-.367 10.241-4.414s-.368-8.632-4.415-10.241-8.632.367-10.241 4.414c-1.608 4.047.368 8.632 4.415 10.241z"></path></svg>