<!-- icon666.com - MILLIONS vector ICONS FREE --><svg viewBox="0 0 64 64" xmlns="http://www.w3.org/2000/svg" xmlns:xlink="http://www.w3.org/1999/xlink"><linearGradient id="linear-gradient" gradientUnits="userSpaceOnUse" x1="3.25" x2="60.75" y1="32" y2="32"><stop offset="0" stop-color="#5bb4f6"></stop><stop offset=".61" stop-color="#2191e5"></stop><stop offset="1" stop-color="#007edb"></stop></linearGradient><g id="Layer_71" data-name="Layer 71"><circle cx="32" cy="32" fill="url(#linear-gradient)" r="28.75" style="fill: rgb(0, 153, 243);"></circle><g fill="#fff"><path d="m47.14 14.11h-22.27a.78.78 0 0 0 -.75.75v9.54a.75.75 0 0 0 1.5 0v-8.58l15.66 3.91v24.54l-15.66 3.91v-9.26a.75.75 0 0 0 -1.5 0v10.22a.77.77 0 0 0 .75.75h22.27a.76.76 0 0 0 .75-.75v-34.28a.76.76 0 0 0 -.75-.75zm-.75 34.28h-15.39l11.24-2.81a.74.74 0 0 0 .57-.72v-25.72a.74.74 0 0 0 -.57-.72l-11.24-2.81h15.39z" fill="#fff"></path><path d="m28.41 36.65a2.47 2.47 0 0 0 1.74 4.21 2.45 2.45 0 0 0 1.74-.73l7.59-7.6a.74.74 0 0 0 0-1.06l-7.59-7.6a2.45 2.45 0 0 0 -1.74-.73 2.47 2.47 0 0 0 -1.74 4.21l2.19 2.19h-16a2.46 2.46 0 0 0 0 4.92h16zm-13.84-3.65a1 1 0 0 1 0-1.92h17.84a.75.75 0 0 0 .69-.47.74.74 0 0 0 -.16-.81l-3.47-3.47a1 1 0 0 1 0-1.37 1 1 0 0 1 .68-.28 1 1 0 0 1 .69.29l7.06 7.03-7.07 7.08a1 1 0 0 1 -.68.28 1 1 0 0 1 -.68-.28 1 1 0 0 1 0-1.37l3.47-3.47a.74.74 0 0 0 .16-.81.75.75 0 0 0 -.69-.47z" fill="#fff"></path></g></g></svg>