<!-- icon666.com - MILLIONS vector ICONS FREE --><svg xmlns="http://www.w3.org/2000/svg" viewBox="0 0 64 64"><g id="trip"><path d="M51,49.24a1,1,0,0,1-.7588-1.6513A24.0021,24.0021,0,0,0,54.6553,24.07C53.3975,24.8477,52,26.0264,52,27.42c0,1.3877.1,2.7569.1875,3.9639.1709,2.3545.3057,4.2148-.2832,5.4629a.8863.8863,0,0,1-.0645.1152l.002-.001a.904.904,0,0,1-.1943.2657,1,1,0,0,1-1.5381-1.2637c.3476-.7891.2187-2.5606.083-4.4336C50.1025,30.2871,50,28.88,50,27.42c0-2.14,1.6338-4.1035,4.7256-5.6806a1,1,0,0,1,1.3808.5156,25.9939,25.9939,0,0,1-4.3476,26.6367A.9961.9961,0,0,1,51,49.24Z"></path><path d="M51,49.24a1,1,0,0,1-.7588-1.6513,24,24,0,1,0-36.4824,0,1,1,0,0,1-1.5176,1.3027,26,26,0,1,1,39.5176,0A.9961.9961,0,0,1,51,49.24Z"></path><path d="M46.9482,18.7168a7.0826,7.0826,0,0,1-5.3066-1.8525c-1.707-1.8711-3.7295-2.2872-5.6855-2.69a21.9123,21.9123,0,0,1-2.1885-.53c-1.7124-.5469-2.6529-2.77-2.7974-6.6065A1.0009,1.0009,0,0,1,31.97,6,25.8167,25.8167,0,0,1,52.6133,16.16a1,1,0,0,1-.4,1.5293A14.149,14.149,0,0,1,46.9482,18.7168ZM33.0352,8.0215c.22,2.4756.8339,3.5547,1.3388,3.7168a20.12,20.12,0,0,0,1.9854.4765c2.164.4454,4.6152.9512,6.76,3.3018,1.3233,1.45,4.584,1.4248,7.02.7715A23.7779,23.7779,0,0,0,33.0352,8.0215Z"></path><path d="M7.1,35.15a1,1,0,0,1-.9951-.9024C6.0352,33.541,6,32.7842,6,32A26.1212,26.1212,0,0,1,22.7241,7.7158a1,1,0,0,1,1.2871.57,1.5318,1.5318,0,0,0,.2588.4893A9.0032,9.0032,0,0,1,27.02,13.27c.0015-.0429.0176.0166.0376.1045.1738.753.58,2.5176-.373,3.7608a3.1386,3.1386,0,0,1-2.5157,1.1338,12.9779,12.9779,0,0,1-4.2934-.7784,5.9008,5.9008,0,0,0-2.1846-.4355,7.2945,7.2945,0,0,0-.2754,4.5859c.6563.5362,4.6167,3.92,3.6089,6.0557-.7685,1.6006-3.67,3.9639-5.1772,4.7178-1.21.6064-2.77.3232-4.0225.0947a6.5946,6.5946,0,0,0-1.14-.1543,14.0545,14.0545,0,0,0-2.5982,2.23l-.2886.2822A.9987.9987,0,0,1,7.1,35.15ZM22.6211,9.9131A24.1224,24.1224,0,0,0,8,31.9a7.2065,7.2065,0,0,1,2.0449-1.4346,4.1312,4.1312,0,0,1,2.1367.0752,5.5994,5.5994,0,0,0,2.771.084,13.3011,13.3011,0,0,0,4.2662-3.7881c.0063-.6514-2.1646-3.0449-3.0035-3.6045-1.4282-.9521-1.2509-5.1963-.3408-7.0273.8853-1.76,2.8516-1.1592,4.5869-.627a11.3364,11.3364,0,0,0,3.628.6924h.0034a1.2923,1.2923,0,0,0,1.0044-.3525c.38-.4961.1123-1.6582.0117-2.0957a3.2451,3.2451,0,0,1-.085-.4541,8.2382,8.2382,0,0,0-1.9829-3.0157A2.1652,2.1652,0,0,1,22.6211,9.9131ZM17.3247,21.5684c.0034.0019.0274.02.0684.0546A.46.46,0,0,0,17.3247,21.5684Zm7.7066-8.1719ZM25.02,13.27v0Z"></path><path d="M49,58H37a3.0033,3.0033,0,0,1-3-3V37a3.0033,3.0033,0,0,1,3-3H49a3.0033,3.0033,0,0,1,3,3V55A3.0033,3.0033,0,0,1,49,58ZM37,36a1.0006,1.0006,0,0,0-1,1V55a1.0006,1.0006,0,0,0,1,1H49a1.0006,1.0006,0,0,0,1-1V37a1.0006,1.0006,0,0,0-1-1Z"></path><path d="M28,42H20a1,1,0,0,1-1-1V38a3.0033,3.0033,0,0,1,3-3h4a3.0033,3.0033,0,0,1,3,3v3A1,1,0,0,1,28,42Zm-7-2h6V38a1.0009,1.0009,0,0,0-1-1H22a1.0009,1.0009,0,0,0-1,1Z"></path><path d="M16.9165,58a1,1,0,0,1-1-1V41a1,1,0,0,1,2,0V57A1,1,0,0,1,16.9165,58Z"></path><path d="M31,58a1,1,0,0,1-1-1V41a1,1,0,0,1,2,0V57A1,1,0,0,1,31,58Z"></path><path d="M46,36H40a1,1,0,0,1-1-1V25a1,1,0,0,1,1-1h6a1,1,0,0,1,1,1V35A1,1,0,0,1,46,36Zm-5-2h4V26H41Z"></path><path d="M48,26H38a1,1,0,0,1,0-2H48a1,1,0,0,1,0,2Z"></path><path d="M43,52a1,1,0,0,1-1-1V41a1,1,0,0,1,2,0V51A1,1,0,0,1,43,52Z"></path><path d="M47,52a1,1,0,0,1-1-1V41a1,1,0,0,1,2,0V51A1,1,0,0,1,47,52Z"></path><path d="M39,52a1,1,0,0,1-1-1V41a1,1,0,0,1,2,0V51A1,1,0,0,1,39,52Z"></path><path d="M33,58H15a3.0033,3.0033,0,0,1-3-3V43a3.0033,3.0033,0,0,1,3-3H33a3.0033,3.0033,0,0,1,3,3V55A3.0033,3.0033,0,0,1,33,58ZM15,42a1.0009,1.0009,0,0,0-1,1V55a1.0009,1.0009,0,0,0,1,1H33a1.0006,1.0006,0,0,0,1-1V43a1.0006,1.0006,0,0,0-1-1Z"></path></g></svg>