<!-- icon666.com - MILLIONS vector ICONS FREE --><svg id="Capa_1" enable-background="new 0 0 512 512" viewBox="0 0 512 512" xmlns="http://www.w3.org/2000/svg"><g><path d="m360.282 131.199c-3.178-2.659-7.907-2.237-10.564.941-2.657 3.177-2.236 7.907.941 10.565 33.665 28.159 52.973 69.454 52.973 113.295 0 81.404-66.228 147.631-147.632 147.631-73.892 0-136.82-55.16-146.379-128.306-.536-4.108-4.316-7.005-8.408-6.465-4.107.537-7.002 4.301-6.465 8.408 10.53 80.59 79.854 141.363 161.252 141.363 89.676 0 162.632-72.956 162.632-162.631 0-48.296-21.268-93.785-58.35-124.801z"></path><path d="m100.912 247.6c.258.026.514.039.767.039 3.802 0 7.061-2.879 7.453-6.743 3.673-36.167 20.579-69.614 47.605-94.177 27.21-24.731 62.462-38.351 99.263-38.351 22.845 0 44.741 5.074 65.081 15.08 3.716 1.828 8.211.297 10.04-3.418 1.829-3.717.298-8.212-3.419-10.041-22.417-11.028-46.541-16.62-71.702-16.62-40.54 0-79.375 15.005-109.352 42.25-29.769 27.057-48.393 63.907-52.44 103.762-.418 4.121 2.583 7.801 6.704 8.219z"></path><path d="m312.266 340.583c28.373-18.91 45.312-50.529 45.312-84.583 0-56.01-45.567-101.578-101.578-101.578s-101.578 45.568-101.578 101.578 45.567 101.578 101.578 101.578c7.029 0 14.053-.723 20.875-2.149 4.055-.847 6.654-4.821 5.808-8.876-.849-4.055-4.83-6.652-8.876-5.807-5.815 1.215-11.806 1.832-17.807 1.832-47.739 0-86.578-38.839-86.578-86.578s38.839-86.578 86.578-86.578 86.578 38.839 86.578 86.578c0 29.026-14.441 55.98-38.631 72.101-3.447 2.297-4.379 6.954-2.082 10.4 2.298 3.447 6.954 4.379 10.401 2.082z"></path><path d="m485.291 332.523-30.398-25.138c-3.652-3.02-5.346-7.777-4.419-12.415 2.547-12.766 3.839-25.877 3.839-38.97s-1.292-26.205-3.84-38.971c-.926-4.638.768-9.395 4.42-12.415l30.398-25.138c8.68-7.177 10.893-19.466 5.261-29.221l-25.699-44.513c-5.633-9.755-17.38-13.982-27.937-10.055l-36.997 13.768c-4.446 1.652-9.415.742-12.966-2.383-19.847-17.461-42.556-30.583-67.497-39.001-4.461-1.505-7.723-5.347-8.513-10.026l-6.568-38.881c-1.877-11.103-11.413-19.164-22.676-19.164h-51.398c-11.263 0-20.799 8.061-22.676 19.166l-6.568 38.881c-.79 4.68-4.053 8.521-8.513 10.027-24.941 8.417-47.65 21.539-67.497 39-3.551 3.125-8.521 4.038-12.966 2.382l-36.997-13.767c-10.554-3.928-22.305.299-27.937 10.055l-25.699 44.513c-5.632 9.754-3.419 22.043 5.261 29.221l30.398 25.138c3.652 3.02 5.346 7.777 4.421 12.415-2.549 12.764-3.841 25.876-3.841 38.971s1.292 26.207 3.84 38.97c.926 4.638-.768 9.396-4.42 12.416l-30.398 25.138c-8.68 7.177-10.893 19.466-5.261 29.221l25.699 44.513c5.632 9.754 17.38 13.98 27.936 10.055l36.999-13.768c4.445-1.654 9.412-.743 12.965 2.383 19.847 17.461 42.556 30.583 67.497 39.001 4.46 1.505 7.723 5.347 8.513 10.026l6.568 38.881c1.877 11.101 11.413 19.162 22.676 19.162h51.398c11.263 0 20.799-8.061 22.676-19.166l6.568-38.882c.79-4.679 4.052-8.521 8.513-10.026 24.941-8.417 47.65-21.539 67.497-39 3.551-3.125 8.518-4.038 12.966-2.382l36.997 13.768c10.554 3.926 22.306-.3 27.937-10.055l25.699-44.513c5.632-9.755 3.419-22.044-5.261-29.221zm-7.729 21.721-25.699 44.513c-1.958 3.391-6.04 4.862-9.715 3.496l-36.997-13.767c-9.632-3.586-20.399-1.601-28.105 5.179-18.348 16.143-39.337 28.271-62.386 36.05-9.703 3.275-16.795 11.605-18.507 21.74l-6.568 38.881c-.652 3.862-3.968 6.665-7.885 6.665h-51.398c-3.917 0-7.232-2.803-7.885-6.665l-6.568-38.882c-1.713-10.135-8.805-18.465-18.507-21.74-23.049-7.778-44.038-19.907-62.385-36.049-5.167-4.547-11.712-6.937-18.368-6.937-3.27 0-6.565.577-9.737 1.757l-36.999 13.768c-3.671 1.37-7.756-.105-9.714-3.496l-25.699-44.513c-1.958-3.392-1.189-7.665 1.829-10.161l30.398-25.138c7.911-6.542 11.578-16.853 9.571-26.911-2.355-11.8-3.55-23.923-3.55-36.034s1.194-24.234 3.551-36.035c2.006-10.057-1.661-20.368-9.572-26.91l-30.398-25.138c-3.019-2.496-3.787-6.769-1.829-10.161l25.699-44.513c1.957-3.392 6.037-4.863 9.715-3.496l36.996 13.767c9.631 3.586 20.401 1.6 28.106-5.179 18.348-16.143 39.337-28.271 62.386-36.05 9.702-3.274 16.794-11.604 18.507-21.74l6.568-38.881c.652-3.862 3.968-6.665 7.885-6.665h51.398c3.917 0 7.232 2.803 7.885 6.665l6.568 38.881c1.712 10.135 8.804 18.466 18.507 21.741 23.049 7.778 44.038 19.907 62.386 36.05 7.705 6.779 18.475 8.764 28.105 5.179l36.998-13.768c3.674-1.367 7.757.105 9.714 3.496l25.699 44.513c1.958 3.392 1.189 7.665-1.829 10.161l-30.398 25.138c-7.911 6.542-11.579 16.854-9.571 26.91 2.355 11.801 3.55 23.925 3.55 36.035s-1.194 24.233-3.549 36.034c-2.009 10.057 1.659 20.369 9.57 26.911l30.398 25.138c3.018 2.496 3.787 6.769 1.829 10.161z"></path><path d="m301.468 262.453c3.09 1.869 8.113 1.181 10.212-2.548l14.409-23.625c2.156-3.536 1.038-8.151-2.498-10.308-3.538-2.158-8.151-1.04-10.309 2.498l-4.326 7.093c-8.224-21.235-28.853-36.339-52.956-36.339-15.636 0-30.738 6.546-41.435 17.959-2.832 3.022-2.679 7.768.344 10.601 3.021 2.833 7.769 2.677 10.602-.343 7.987-8.523 18.815-13.216 30.489-13.216 17.717 0 32.883 11.091 38.947 26.691l-9.39-5.727c-3.537-2.158-8.152-1.039-10.309 2.498-2.156 3.536-1.038 8.151 2.498 10.308l23.625 14.409c.032.018.065.03.097.049z"></path><path d="m236.752 274.314c2.156-3.536 1.038-8.151-2.498-10.308l-23.625-14.409c-3.241-2.036-8.218-1.134-10.309 2.498l-14.409 23.625c-2.156 3.536-1.038 8.151 2.498 10.308 1.22.744 2.567 1.098 3.898 1.098 2.528 0 4.997-1.279 6.41-3.596l4.326-7.093c8.224 21.235 28.853 36.339 52.956 36.339 16.186 0 31.646-6.938 42.416-19.034 2.754-3.094 2.479-7.834-.614-10.589-3.094-2.754-7.835-2.479-10.589.614-7.927 8.902-19.303 14.008-31.213 14.008-17.717 0-32.883-11.091-38.947-26.691l9.39 5.727c3.537 2.158 8.153 1.039 10.31-2.497z"></path></g></svg>