<!-- icon666.com - MILLIONS vector ICONS FREE --><svg viewBox="0 0 512 512" xmlns="http://www.w3.org/2000/svg"><g><g fill="#57a4ff"><path d="m256 16-48 24 48 24z" fill="#57a4ff" style="fill: rgb(255, 255, 255);"></path><path d="m256 496 48-24-48-24z" fill="#57a4ff" style="fill: rgb(255, 255, 255);"></path><path d="m160 112h192v24h-192z" fill="#57a4ff" style="fill: rgb(255, 255, 255);"></path><path d="m304 177.28v-9.28h-96v9.28l48 38.14z" fill="#57a4ff" style="fill: rgb(255, 255, 255);"></path><path d="m208 344h96v-9.28l-48-38.14-48 38.14z" fill="#57a4ff" style="fill: rgb(255, 255, 255);"></path><path d="m160 376h192v24h-192z" fill="#57a4ff" style="fill: rgb(255, 255, 255);"></path></g><g fill="#004fac"><path d="m307.578 464.845-48-24a8 8 0 0 0 -11.578 7.155v15.152c-111-4.221-200-95.82-200-207.832a208.354 208.354 0 0 1 123.263-190.015 8 8 0 0 0 -6.526-14.61 224.021 224.021 0 0 0 83.263 428.469v16.836a8 8 0 0 0 11.578 7.155l48-24a8 8 0 0 0 0-14.31zm-43.578 18.211v-22.112l22.111 11.056z" fill="#004fac" style="fill: rgb(0, 153, 243);"></path><path d="m414.392 97.608a222.4 222.4 0 0 0 -150.392-65.452v-16.156a8 8 0 0 0 -11.578-7.155l-48 24a8 8 0 0 0 0 14.31l48 24a8 8 0 0 0 11.578-7.155v-15.831c111 4.22 200 95.82 200 207.831a208.359 208.359 0 0 1 -123.263 190.016 8 8 0 1 0 6.526 14.609 224.056 224.056 0 0 0 67.129-363.017zm-166.392-46.552-22.111-11.056 22.111-11.056z" fill="#004fac" style="fill: rgb(0, 153, 243);"></path><path d="m341.21 198.07a8.007 8.007 0 0 0 2.79-6.07v-48h8a8 8 0 0 0 8-8v-24a8 8 0 0 0 -8-8h-192a8 8 0 0 0 -8 8v24a8 8 0 0 0 8 8h8v48a8.007 8.007 0 0 0 2.79 6.07l53.21 45.61v24.64l-53.21 45.61a8.007 8.007 0 0 0 -2.79 6.07v48h-8a8 8 0 0 0 -8 8v24a8 8 0 0 0 8 8h192a8 8 0 0 0 8-8v-24a8 8 0 0 0 -8-8h-8v-48a8.007 8.007 0 0 0 -2.79-6.07l-53.21-45.61v-24.64zm-173.21-70.07v-8h176v8zm176 256v8h-176v-8zm-69.21-105.93 53.21 45.61v44.32h-144v-44.32l53.21-45.61a8.007 8.007 0 0 0 2.79-6.07v-32a8.007 8.007 0 0 0 -2.79-6.07l-53.21-45.61v-44.32h144v44.32l-53.21 45.61a8.007 8.007 0 0 0 -2.79 6.07v32a8.007 8.007 0 0 0 2.79 6.07z" fill="#004fac" style="fill: rgb(0, 153, 243);"></path><path d="m308.98 183.55a8.013 8.013 0 0 0 3.02-6.27v-9.28a8 8 0 0 0 -8-8h-96a8 8 0 0 0 -8 8v9.28a8.013 8.013 0 0 0 3.02 6.27l44.98 35.74v73.42l-44.98 35.74a8.013 8.013 0 0 0 -3.02 6.27v9.28a8 8 0 0 0 8 8h96a8 8 0 0 0 8-8v-9.28a8.013 8.013 0 0 0 -3.02-6.27l-44.98-35.74v-73.42zm-16.23 152.45h-73.5l36.75-29.21zm-36.75-130.79-36.75-29.21h73.5z" fill="#004fac" style="fill: rgb(0, 153, 243);"></path></g></g></svg>